<mxfile host="app.diagrams.net" agent="Mozilla/5.0 (Windows NT 10.0; Win64; x64) AppleWebKit/537.36 (KHTML, like Gecko) Chrome/134.0.0.0 Safari/537.36 OPR/119.0.0.0" version="27.1.6">
  <diagram name="Página-1" id="5PLDb4vW_Pb9pgroxckN">
    <mxGraphModel dx="1688" dy="1715" grid="1" gridSize="10" guides="1" tooltips="1" connect="1" arrows="1" fold="1" page="1" pageScale="1" pageWidth="827" pageHeight="1169" math="0" shadow="0">
      <root>
        <mxCell id="0" />
        <mxCell id="1" parent="0" />
        <mxCell id="bT6QLxlO-QxaZoZBgxad-1" value="&lt;span style=&quot;font-weight: 600; font-family: quote-cjk-patch, Inter, system-ui, -apple-system, BlinkMacSystemFont, &amp;quot;Segoe UI&amp;quot;, Roboto, &amp;quot;Noto Sans&amp;quot;, Ubuntu, Cantarell, &amp;quot;Helvetica Neue&amp;quot;, Oxygen, &amp;quot;Open Sans&amp;quot;, sans-serif; text-align: start;&quot;&gt;Manejo Integral y Sostenible de Residuos Sólidos&lt;/span&gt;" style="ellipse;whiteSpace=wrap;html=1;fontSize=18;fillColor=#008a00;fontColor=#FFFFFF;strokeColor=#005700;labelBackgroundColor=none;" vertex="1" parent="1">
          <mxGeometry x="320" y="200" width="250" height="200" as="geometry" />
        </mxCell>
        <mxCell id="bT6QLxlO-QxaZoZBgxad-20" style="edgeStyle=orthogonalEdgeStyle;rounded=0;orthogonalLoop=1;jettySize=auto;html=1;entryX=0.5;entryY=0;entryDx=0;entryDy=0;" edge="1" parent="1" source="bT6QLxlO-QxaZoZBgxad-2" target="bT6QLxlO-QxaZoZBgxad-4">
          <mxGeometry relative="1" as="geometry" />
        </mxCell>
        <mxCell id="bT6QLxlO-QxaZoZBgxad-33" style="edgeStyle=orthogonalEdgeStyle;rounded=0;orthogonalLoop=1;jettySize=auto;html=1;endArrow=none;startFill=0;" edge="1" parent="1" source="bT6QLxlO-QxaZoZBgxad-2">
          <mxGeometry relative="1" as="geometry">
            <mxPoint x="445" y="10" as="targetPoint" />
          </mxGeometry>
        </mxCell>
        <mxCell id="bT6QLxlO-QxaZoZBgxad-44" style="edgeStyle=orthogonalEdgeStyle;rounded=0;orthogonalLoop=1;jettySize=auto;html=1;entryX=0.5;entryY=1;entryDx=0;entryDy=0;" edge="1" parent="1" source="bT6QLxlO-QxaZoZBgxad-2" target="bT6QLxlO-QxaZoZBgxad-32">
          <mxGeometry relative="1" as="geometry">
            <Array as="points">
              <mxPoint x="445" y="10" />
              <mxPoint x="550" y="10" />
            </Array>
          </mxGeometry>
        </mxCell>
        <mxCell id="bT6QLxlO-QxaZoZBgxad-45" style="edgeStyle=orthogonalEdgeStyle;rounded=0;orthogonalLoop=1;jettySize=auto;html=1;entryX=0.5;entryY=1;entryDx=0;entryDy=0;" edge="1" parent="1" source="bT6QLxlO-QxaZoZBgxad-2" target="bT6QLxlO-QxaZoZBgxad-31">
          <mxGeometry relative="1" as="geometry" />
        </mxCell>
        <mxCell id="bT6QLxlO-QxaZoZBgxad-46" style="edgeStyle=orthogonalEdgeStyle;rounded=0;orthogonalLoop=1;jettySize=auto;html=1;entryX=0.5;entryY=1;entryDx=0;entryDy=0;" edge="1" parent="1" source="bT6QLxlO-QxaZoZBgxad-2" target="bT6QLxlO-QxaZoZBgxad-13">
          <mxGeometry relative="1" as="geometry">
            <Array as="points">
              <mxPoint x="445" y="10" />
              <mxPoint x="340" y="10" />
            </Array>
          </mxGeometry>
        </mxCell>
        <mxCell id="bT6QLxlO-QxaZoZBgxad-47" value="Los desechos se generan principalmente&amp;nbsp;&lt;div&gt;por las actividades humanas, en lo&lt;/div&gt;" style="edgeLabel;html=1;align=center;verticalAlign=middle;resizable=0;points=[];" vertex="1" connectable="0" parent="bT6QLxlO-QxaZoZBgxad-46">
          <mxGeometry x="-0.6841" relative="1" as="geometry">
            <mxPoint as="offset" />
          </mxGeometry>
        </mxCell>
        <mxCell id="bT6QLxlO-QxaZoZBgxad-2" value="Generación" style="rounded=0;whiteSpace=wrap;html=1;fillColor=#d5e8d4;strokeColor=#82b366;" vertex="1" parent="1">
          <mxGeometry x="385" y="80" width="120" height="60" as="geometry" />
        </mxCell>
        <mxCell id="bT6QLxlO-QxaZoZBgxad-21" style="edgeStyle=orthogonalEdgeStyle;rounded=0;orthogonalLoop=1;jettySize=auto;html=1;entryX=0.5;entryY=0;entryDx=0;entryDy=0;" edge="1" parent="1" source="bT6QLxlO-QxaZoZBgxad-4" target="bT6QLxlO-QxaZoZBgxad-5">
          <mxGeometry relative="1" as="geometry" />
        </mxCell>
        <mxCell id="bT6QLxlO-QxaZoZBgxad-69" style="edgeStyle=orthogonalEdgeStyle;rounded=0;orthogonalLoop=1;jettySize=auto;html=1;" edge="1" parent="1" source="bT6QLxlO-QxaZoZBgxad-4" target="bT6QLxlO-QxaZoZBgxad-66">
          <mxGeometry relative="1" as="geometry" />
        </mxCell>
        <mxCell id="bT6QLxlO-QxaZoZBgxad-70" value="se contienen temporal&amp;nbsp;&lt;div&gt;los residuos en&lt;/div&gt;" style="edgeLabel;html=1;align=center;verticalAlign=middle;resizable=0;points=[];" vertex="1" connectable="0" parent="bT6QLxlO-QxaZoZBgxad-69">
          <mxGeometry x="-0.0002" y="3" relative="1" as="geometry">
            <mxPoint as="offset" />
          </mxGeometry>
        </mxCell>
        <mxCell id="bT6QLxlO-QxaZoZBgxad-4" value="Almacenamiento" style="rounded=0;whiteSpace=wrap;html=1;fillColor=#d5e8d4;strokeColor=#82b366;" vertex="1" parent="1">
          <mxGeometry x="610" y="170" width="120" height="60" as="geometry" />
        </mxCell>
        <mxCell id="bT6QLxlO-QxaZoZBgxad-22" style="edgeStyle=orthogonalEdgeStyle;rounded=0;orthogonalLoop=1;jettySize=auto;html=1;entryX=1;entryY=0.5;entryDx=0;entryDy=0;" edge="1" parent="1" source="bT6QLxlO-QxaZoZBgxad-5" target="bT6QLxlO-QxaZoZBgxad-6">
          <mxGeometry relative="1" as="geometry">
            <Array as="points">
              <mxPoint x="670" y="490" />
            </Array>
          </mxGeometry>
        </mxCell>
        <mxCell id="bT6QLxlO-QxaZoZBgxad-85" style="edgeStyle=orthogonalEdgeStyle;rounded=0;orthogonalLoop=1;jettySize=auto;html=1;" edge="1" parent="1" target="bT6QLxlO-QxaZoZBgxad-82">
          <mxGeometry relative="1" as="geometry">
            <mxPoint x="780" y="400" as="sourcePoint" />
            <Array as="points">
              <mxPoint x="1050" y="400" />
              <mxPoint x="1050" y="350" />
            </Array>
          </mxGeometry>
        </mxCell>
        <mxCell id="bT6QLxlO-QxaZoZBgxad-86" style="edgeStyle=orthogonalEdgeStyle;rounded=0;orthogonalLoop=1;jettySize=auto;html=1;exitX=1;exitY=0.5;exitDx=0;exitDy=0;" edge="1" parent="1" source="bT6QLxlO-QxaZoZBgxad-5" target="bT6QLxlO-QxaZoZBgxad-83">
          <mxGeometry relative="1" as="geometry">
            <mxPoint x="780" y="400" as="sourcePoint" />
            <Array as="points">
              <mxPoint x="1050" y="400" />
              <mxPoint x="1050" y="440" />
            </Array>
          </mxGeometry>
        </mxCell>
        <mxCell id="bT6QLxlO-QxaZoZBgxad-87" value="es el proceso de recoger y transportar los residuos&amp;nbsp;&lt;div&gt;desde su origen hasta un lugar de disposición final&lt;/div&gt;&lt;div&gt;y este puede ser de forma&lt;/div&gt;" style="edgeLabel;html=1;align=center;verticalAlign=middle;resizable=0;points=[];" vertex="1" connectable="0" parent="bT6QLxlO-QxaZoZBgxad-86">
          <mxGeometry x="-0.2103" relative="1" as="geometry">
            <mxPoint x="-14" as="offset" />
          </mxGeometry>
        </mxCell>
        <mxCell id="bT6QLxlO-QxaZoZBgxad-5" value="Recolección" style="rounded=0;whiteSpace=wrap;html=1;fillColor=#d5e8d4;strokeColor=#82b366;" vertex="1" parent="1">
          <mxGeometry x="610" y="370" width="120" height="60" as="geometry" />
        </mxCell>
        <mxCell id="bT6QLxlO-QxaZoZBgxad-24" style="edgeStyle=orthogonalEdgeStyle;rounded=0;orthogonalLoop=1;jettySize=auto;html=1;" edge="1" parent="1" source="bT6QLxlO-QxaZoZBgxad-7" target="bT6QLxlO-QxaZoZBgxad-16">
          <mxGeometry relative="1" as="geometry" />
        </mxCell>
        <mxCell id="bT6QLxlO-QxaZoZBgxad-120" style="edgeStyle=orthogonalEdgeStyle;rounded=0;orthogonalLoop=1;jettySize=auto;html=1;" edge="1" parent="1" source="bT6QLxlO-QxaZoZBgxad-7" target="bT6QLxlO-QxaZoZBgxad-108">
          <mxGeometry relative="1" as="geometry" />
        </mxCell>
        <mxCell id="bT6QLxlO-QxaZoZBgxad-7" value="Transferencia" style="rounded=0;whiteSpace=wrap;html=1;fillColor=#d5e8d4;strokeColor=#82b366;" vertex="1" parent="1">
          <mxGeometry x="170" y="370" width="120" height="60" as="geometry" />
        </mxCell>
        <mxCell id="bT6QLxlO-QxaZoZBgxad-13" value="Domestico" style="rounded=0;whiteSpace=wrap;html=1;" vertex="1" parent="1">
          <mxGeometry x="300" y="-90" width="80" height="40" as="geometry" />
        </mxCell>
        <mxCell id="bT6QLxlO-QxaZoZBgxad-137" style="edgeStyle=orthogonalEdgeStyle;rounded=0;orthogonalLoop=1;jettySize=auto;html=1;entryX=1;entryY=0.5;entryDx=0;entryDy=0;" edge="1" parent="1" source="bT6QLxlO-QxaZoZBgxad-16" target="bT6QLxlO-QxaZoZBgxad-130">
          <mxGeometry relative="1" as="geometry" />
        </mxCell>
        <mxCell id="bT6QLxlO-QxaZoZBgxad-138" style="edgeStyle=orthogonalEdgeStyle;rounded=0;orthogonalLoop=1;jettySize=auto;html=1;entryX=1;entryY=0.5;entryDx=0;entryDy=0;" edge="1" parent="1" source="bT6QLxlO-QxaZoZBgxad-16" target="bT6QLxlO-QxaZoZBgxad-131">
          <mxGeometry relative="1" as="geometry" />
        </mxCell>
        <mxCell id="bT6QLxlO-QxaZoZBgxad-153" style="edgeStyle=orthogonalEdgeStyle;rounded=0;orthogonalLoop=1;jettySize=auto;html=1;exitX=0.25;exitY=0;exitDx=0;exitDy=0;entryX=1;entryY=0.5;entryDx=0;entryDy=0;" edge="1" parent="1" source="bT6QLxlO-QxaZoZBgxad-16" target="bT6QLxlO-QxaZoZBgxad-145">
          <mxGeometry relative="1" as="geometry" />
        </mxCell>
        <mxCell id="bT6QLxlO-QxaZoZBgxad-16" value="Disposición final" style="rounded=0;whiteSpace=wrap;html=1;fillColor=#d5e8d4;strokeColor=#82b366;" vertex="1" parent="1">
          <mxGeometry x="170" y="170" width="120" height="60" as="geometry" />
        </mxCell>
        <mxCell id="bT6QLxlO-QxaZoZBgxad-23" style="edgeStyle=orthogonalEdgeStyle;rounded=0;orthogonalLoop=1;jettySize=auto;html=1;entryX=0.5;entryY=1;entryDx=0;entryDy=0;" edge="1" parent="1" source="bT6QLxlO-QxaZoZBgxad-6" target="bT6QLxlO-QxaZoZBgxad-7">
          <mxGeometry relative="1" as="geometry" />
        </mxCell>
        <mxCell id="bT6QLxlO-QxaZoZBgxad-98" style="edgeStyle=orthogonalEdgeStyle;rounded=0;orthogonalLoop=1;jettySize=auto;html=1;" edge="1" parent="1" source="bT6QLxlO-QxaZoZBgxad-6" target="bT6QLxlO-QxaZoZBgxad-95">
          <mxGeometry relative="1" as="geometry">
            <Array as="points">
              <mxPoint x="445" y="650" />
              <mxPoint x="374" y="650" />
            </Array>
          </mxGeometry>
        </mxCell>
        <mxCell id="bT6QLxlO-QxaZoZBgxad-99" style="edgeStyle=orthogonalEdgeStyle;rounded=0;orthogonalLoop=1;jettySize=auto;html=1;entryX=0.5;entryY=0;entryDx=0;entryDy=0;" edge="1" parent="1" source="bT6QLxlO-QxaZoZBgxad-6" target="bT6QLxlO-QxaZoZBgxad-96">
          <mxGeometry relative="1" as="geometry">
            <Array as="points">
              <mxPoint x="445" y="650" />
              <mxPoint x="510" y="650" />
            </Array>
          </mxGeometry>
        </mxCell>
        <mxCell id="bT6QLxlO-QxaZoZBgxad-100" value="&lt;div&gt;Los residuos se transportan a plantas de transferencia&lt;/div&gt;&lt;div&gt;&amp;nbsp;o directamente a instalaciones de tratamiento o eliminación.&lt;br&gt;Mediante&amp;nbsp;&amp;nbsp;&lt;/div&gt;" style="edgeLabel;html=1;align=center;verticalAlign=middle;resizable=0;points=[];" vertex="1" connectable="0" parent="bT6QLxlO-QxaZoZBgxad-99">
          <mxGeometry x="-0.4177" relative="1" as="geometry">
            <mxPoint y="-7" as="offset" />
          </mxGeometry>
        </mxCell>
        <mxCell id="bT6QLxlO-QxaZoZBgxad-109" value="Se refiere al movimiento de&amp;nbsp;&lt;div&gt;materiales sólidos de un lugar a otro.&lt;/div&gt;&lt;div&gt;Emplea&lt;/div&gt;" style="edgeLabel;html=1;align=center;verticalAlign=middle;resizable=0;points=[];" vertex="1" connectable="0" parent="bT6QLxlO-QxaZoZBgxad-99">
          <mxGeometry x="-0.4177" relative="1" as="geometry">
            <mxPoint x="-435" y="-188" as="offset" />
          </mxGeometry>
        </mxCell>
        <mxCell id="bT6QLxlO-QxaZoZBgxad-135" value="Es la etapa final del manejo de los desechos,&amp;nbsp;&lt;div&gt;donde los residuos no aprovechables se&amp;nbsp;&lt;/div&gt;" style="edgeLabel;html=1;align=center;verticalAlign=middle;resizable=0;points=[];" vertex="1" connectable="0" parent="bT6QLxlO-QxaZoZBgxad-99">
          <mxGeometry x="-0.4177" relative="1" as="geometry">
            <mxPoint x="-435" y="-388" as="offset" />
          </mxGeometry>
        </mxCell>
        <mxCell id="bT6QLxlO-QxaZoZBgxad-6" value="Transporte" style="rounded=0;whiteSpace=wrap;html=1;fillColor=#d5e8d4;strokeColor=#82b366;" vertex="1" parent="1">
          <mxGeometry x="385" y="460" width="120" height="60" as="geometry" />
        </mxCell>
        <mxCell id="bT6QLxlO-QxaZoZBgxad-25" value="1" style="ellipse;whiteSpace=wrap;html=1;fillColor=#008a00;fontColor=#ffffff;strokeColor=#005700;" vertex="1" parent="1">
          <mxGeometry x="490" y="70" width="30" height="30" as="geometry" />
        </mxCell>
        <mxCell id="bT6QLxlO-QxaZoZBgxad-26" value="2" style="ellipse;whiteSpace=wrap;html=1;fillColor=#008a00;fontColor=#ffffff;strokeColor=#005700;" vertex="1" parent="1">
          <mxGeometry x="720" y="160" width="30" height="30" as="geometry" />
        </mxCell>
        <mxCell id="bT6QLxlO-QxaZoZBgxad-27" value="3" style="ellipse;whiteSpace=wrap;html=1;fillColor=#008a00;fontColor=#ffffff;strokeColor=#005700;" vertex="1" parent="1">
          <mxGeometry x="720" y="360" width="30" height="30" as="geometry" />
        </mxCell>
        <mxCell id="bT6QLxlO-QxaZoZBgxad-28" value="4" style="ellipse;whiteSpace=wrap;html=1;fillColor=#008a00;fontColor=#ffffff;strokeColor=#005700;" vertex="1" parent="1">
          <mxGeometry x="490" y="450" width="30" height="30" as="geometry" />
        </mxCell>
        <mxCell id="bT6QLxlO-QxaZoZBgxad-29" value="6" style="ellipse;whiteSpace=wrap;html=1;fillColor=#008a00;fontColor=#ffffff;strokeColor=#005700;" vertex="1" parent="1">
          <mxGeometry x="270" y="150" width="30" height="30" as="geometry" />
        </mxCell>
        <mxCell id="bT6QLxlO-QxaZoZBgxad-30" value="5" style="ellipse;whiteSpace=wrap;html=1;fillColor=#008a00;fontColor=#ffffff;strokeColor=#005700;" vertex="1" parent="1">
          <mxGeometry x="270" y="360" width="30" height="30" as="geometry" />
        </mxCell>
        <mxCell id="bT6QLxlO-QxaZoZBgxad-51" style="edgeStyle=orthogonalEdgeStyle;rounded=0;orthogonalLoop=1;jettySize=auto;html=1;endArrow=none;startFill=0;" edge="1" parent="1" source="bT6QLxlO-QxaZoZBgxad-31" target="bT6QLxlO-QxaZoZBgxad-48">
          <mxGeometry relative="1" as="geometry" />
        </mxCell>
        <mxCell id="bT6QLxlO-QxaZoZBgxad-31" value="Comercial" style="rounded=0;whiteSpace=wrap;html=1;" vertex="1" parent="1">
          <mxGeometry x="405" y="-90" width="80" height="40" as="geometry" />
        </mxCell>
        <mxCell id="bT6QLxlO-QxaZoZBgxad-32" value="Industrial" style="rounded=0;whiteSpace=wrap;html=1;" vertex="1" parent="1">
          <mxGeometry x="510" y="-90" width="80" height="40" as="geometry" />
        </mxCell>
        <mxCell id="bT6QLxlO-QxaZoZBgxad-39" value="Orgánicos" style="rounded=0;whiteSpace=wrap;html=1;dashed=1;dashPattern=12 12;strokeColor=light-dark(#00991f, #ededed);" vertex="1" parent="1">
          <mxGeometry x="250" y="-240" width="80" height="40" as="geometry" />
        </mxCell>
        <mxCell id="bT6QLxlO-QxaZoZBgxad-40" value="Inorgánicos" style="rounded=0;whiteSpace=wrap;html=1;dashed=1;dashPattern=12 12;strokeColor=light-dark(#00991f, #ededed);" vertex="1" parent="1">
          <mxGeometry x="355" y="-240" width="80" height="40" as="geometry" />
        </mxCell>
        <mxCell id="bT6QLxlO-QxaZoZBgxad-41" value="Peligrosos" style="rounded=0;whiteSpace=wrap;html=1;dashed=1;dashPattern=12 12;strokeColor=light-dark(#00991f, #ededed);" vertex="1" parent="1">
          <mxGeometry x="460" y="-240" width="80" height="40" as="geometry" />
        </mxCell>
        <mxCell id="bT6QLxlO-QxaZoZBgxad-42" value="Especiales" style="rounded=0;whiteSpace=wrap;html=1;dashed=1;dashPattern=12 12;strokeColor=light-dark(#00991f, #ededed);" vertex="1" parent="1">
          <mxGeometry x="560" y="-240" width="80" height="40" as="geometry" />
        </mxCell>
        <mxCell id="bT6QLxlO-QxaZoZBgxad-54" style="edgeStyle=orthogonalEdgeStyle;rounded=0;orthogonalLoop=1;jettySize=auto;html=1;entryX=0.5;entryY=1;entryDx=0;entryDy=0;endArrow=none;startFill=0;" edge="1" parent="1" source="bT6QLxlO-QxaZoZBgxad-48" target="bT6QLxlO-QxaZoZBgxad-39">
          <mxGeometry relative="1" as="geometry">
            <Array as="points">
              <mxPoint x="445" y="-170" />
              <mxPoint x="290" y="-170" />
            </Array>
          </mxGeometry>
        </mxCell>
        <mxCell id="bT6QLxlO-QxaZoZBgxad-55" style="edgeStyle=orthogonalEdgeStyle;rounded=0;orthogonalLoop=1;jettySize=auto;html=1;entryX=0.5;entryY=1;entryDx=0;entryDy=0;endArrow=none;startFill=0;" edge="1" parent="1" source="bT6QLxlO-QxaZoZBgxad-48" target="bT6QLxlO-QxaZoZBgxad-40">
          <mxGeometry relative="1" as="geometry" />
        </mxCell>
        <mxCell id="bT6QLxlO-QxaZoZBgxad-56" style="edgeStyle=orthogonalEdgeStyle;rounded=0;orthogonalLoop=1;jettySize=auto;html=1;entryX=0.5;entryY=1;entryDx=0;entryDy=0;endArrow=none;startFill=0;" edge="1" parent="1" source="bT6QLxlO-QxaZoZBgxad-48" target="bT6QLxlO-QxaZoZBgxad-41">
          <mxGeometry relative="1" as="geometry" />
        </mxCell>
        <mxCell id="bT6QLxlO-QxaZoZBgxad-57" style="edgeStyle=orthogonalEdgeStyle;rounded=0;orthogonalLoop=1;jettySize=auto;html=1;entryX=0.5;entryY=1;entryDx=0;entryDy=0;endArrow=none;startFill=0;" edge="1" parent="1" source="bT6QLxlO-QxaZoZBgxad-48" target="bT6QLxlO-QxaZoZBgxad-42">
          <mxGeometry relative="1" as="geometry">
            <Array as="points">
              <mxPoint x="445" y="-170" />
              <mxPoint x="600" y="-170" />
            </Array>
          </mxGeometry>
        </mxCell>
        <mxCell id="bT6QLxlO-QxaZoZBgxad-48" value="y pueden ser&amp;nbsp;" style="text;html=1;align=center;verticalAlign=middle;resizable=0;points=[];autosize=1;strokeColor=none;fillColor=none;" vertex="1" parent="1">
          <mxGeometry x="395" y="-152" width="100" height="30" as="geometry" />
        </mxCell>
        <mxCell id="bT6QLxlO-QxaZoZBgxad-49" style="edgeStyle=orthogonalEdgeStyle;rounded=0;orthogonalLoop=1;jettySize=auto;html=1;entryX=0.002;entryY=0.451;entryDx=0;entryDy=0;entryPerimeter=0;endArrow=none;startFill=0;" edge="1" parent="1" source="bT6QLxlO-QxaZoZBgxad-13" target="bT6QLxlO-QxaZoZBgxad-48">
          <mxGeometry relative="1" as="geometry">
            <Array as="points">
              <mxPoint x="340" y="-138" />
            </Array>
          </mxGeometry>
        </mxCell>
        <mxCell id="bT6QLxlO-QxaZoZBgxad-58" value="" style="shape=image;verticalLabelPosition=bottom;labelBackgroundColor=default;verticalAlign=top;aspect=fixed;imageAspect=0;image=https://thumbs.dreamstime.com/b/icono-de-l%C3%ADnea-negra-reciclable-org%C3%A1nica-reciclaje-desechos-clasificaci%C3%B3n-basura-eco-amigable-iniciar-sesi%C3%B3n-en-la-p%C3%A1gina-web-168316324.jpg;" vertex="1" parent="1">
          <mxGeometry x="255" y="-310" width="60" height="60" as="geometry" />
        </mxCell>
        <mxCell id="bT6QLxlO-QxaZoZBgxad-59" value="" style="shape=image;verticalLabelPosition=bottom;labelBackgroundColor=default;verticalAlign=top;aspect=fixed;imageAspect=0;image=https://cdn-icons-png.flaticon.com/512/3209/3209925.png;" vertex="1" parent="1">
          <mxGeometry x="372" y="-301" width="42" height="42" as="geometry" />
        </mxCell>
        <mxCell id="bT6QLxlO-QxaZoZBgxad-60" value="" style="shape=image;verticalLabelPosition=bottom;labelBackgroundColor=default;verticalAlign=top;aspect=fixed;imageAspect=0;image=https://cdn-icons-png.flaticon.com/512/93/93033.png;" vertex="1" parent="1">
          <mxGeometry x="480" y="-299" width="40" height="40" as="geometry" />
        </mxCell>
        <mxCell id="bT6QLxlO-QxaZoZBgxad-61" value="" style="shape=image;verticalLabelPosition=bottom;labelBackgroundColor=default;verticalAlign=top;aspect=fixed;imageAspect=0;image=https://cdn-icons-png.flaticon.com/512/5617/5617224.png;" vertex="1" parent="1">
          <mxGeometry x="579" y="-299" width="42" height="42" as="geometry" />
        </mxCell>
        <mxCell id="bT6QLxlO-QxaZoZBgxad-63" style="edgeStyle=orthogonalEdgeStyle;rounded=0;orthogonalLoop=1;jettySize=auto;html=1;entryX=1;entryY=0.526;entryDx=0;entryDy=0;entryPerimeter=0;endArrow=none;startFill=0;" edge="1" parent="1" source="bT6QLxlO-QxaZoZBgxad-32" target="bT6QLxlO-QxaZoZBgxad-48">
          <mxGeometry relative="1" as="geometry">
            <Array as="points">
              <mxPoint x="550" y="-136" />
            </Array>
          </mxGeometry>
        </mxCell>
        <mxCell id="bT6QLxlO-QxaZoZBgxad-71" style="edgeStyle=orthogonalEdgeStyle;rounded=0;orthogonalLoop=1;jettySize=auto;html=1;entryX=0;entryY=0.5;entryDx=0;entryDy=0;endArrow=none;startFill=0;" edge="1" parent="1" source="bT6QLxlO-QxaZoZBgxad-66" target="bT6QLxlO-QxaZoZBgxad-67">
          <mxGeometry relative="1" as="geometry">
            <Array as="points">
              <mxPoint x="980" y="150" />
            </Array>
          </mxGeometry>
        </mxCell>
        <mxCell id="bT6QLxlO-QxaZoZBgxad-72" style="edgeStyle=orthogonalEdgeStyle;rounded=0;orthogonalLoop=1;jettySize=auto;html=1;entryX=0;entryY=0.5;entryDx=0;entryDy=0;endArrow=none;startFill=0;" edge="1" parent="1" source="bT6QLxlO-QxaZoZBgxad-66" target="bT6QLxlO-QxaZoZBgxad-68">
          <mxGeometry relative="1" as="geometry">
            <Array as="points">
              <mxPoint x="980" y="250" />
            </Array>
          </mxGeometry>
        </mxCell>
        <mxCell id="bT6QLxlO-QxaZoZBgxad-66" value="Contenedores" style="rounded=0;whiteSpace=wrap;html=1;" vertex="1" parent="1">
          <mxGeometry x="940" y="180" width="80" height="40" as="geometry" />
        </mxCell>
        <mxCell id="bT6QLxlO-QxaZoZBgxad-78" style="edgeStyle=orthogonalEdgeStyle;rounded=0;orthogonalLoop=1;jettySize=auto;html=1;entryX=0;entryY=0.5;entryDx=0;entryDy=0;endArrow=none;startFill=0;" edge="1" parent="1" source="bT6QLxlO-QxaZoZBgxad-67" target="bT6QLxlO-QxaZoZBgxad-73">
          <mxGeometry relative="1" as="geometry" />
        </mxCell>
        <mxCell id="bT6QLxlO-QxaZoZBgxad-67" value="Reciclables" style="rounded=0;whiteSpace=wrap;html=1;" vertex="1" parent="1">
          <mxGeometry x="1040" y="130" width="80" height="40" as="geometry" />
        </mxCell>
        <mxCell id="bT6QLxlO-QxaZoZBgxad-77" style="edgeStyle=orthogonalEdgeStyle;rounded=0;orthogonalLoop=1;jettySize=auto;html=1;entryX=0;entryY=0.5;entryDx=0;entryDy=0;endArrow=none;startFill=0;" edge="1" parent="1" source="bT6QLxlO-QxaZoZBgxad-68" target="bT6QLxlO-QxaZoZBgxad-74">
          <mxGeometry relative="1" as="geometry" />
        </mxCell>
        <mxCell id="bT6QLxlO-QxaZoZBgxad-68" value="No reciclables" style="rounded=0;whiteSpace=wrap;html=1;" vertex="1" parent="1">
          <mxGeometry x="1040" y="230" width="80" height="40" as="geometry" />
        </mxCell>
        <mxCell id="bT6QLxlO-QxaZoZBgxad-73" value="que pueden ser procesados" style="rounded=0;whiteSpace=wrap;html=1;dashed=1;dashPattern=12 12;strokeColor=#009900;" vertex="1" parent="1">
          <mxGeometry x="1150" y="130" width="110" height="40" as="geometry" />
        </mxCell>
        <mxCell id="bT6QLxlO-QxaZoZBgxad-74" value="que ya han sido transformados en nuevos productos" style="rounded=0;whiteSpace=wrap;html=1;dashed=1;dashPattern=12 12;strokeColor=#009900;" vertex="1" parent="1">
          <mxGeometry x="1150" y="230" width="110" height="40" as="geometry" />
        </mxCell>
        <mxCell id="bT6QLxlO-QxaZoZBgxad-76" value="" style="shape=image;verticalLabelPosition=bottom;labelBackgroundColor=default;verticalAlign=top;aspect=fixed;imageAspect=0;image=https://static.vecteezy.com/system/resources/previews/009/961/095/non_2x/diapers-for-adult-icon-isolated-contour-symbol-illustration-vector.jpg;" vertex="1" parent="1">
          <mxGeometry x="1270" y="220" width="60" height="60" as="geometry" />
        </mxCell>
        <mxCell id="bT6QLxlO-QxaZoZBgxad-79" value="" style="shape=image;verticalLabelPosition=bottom;labelBackgroundColor=default;verticalAlign=top;aspect=fixed;imageAspect=0;image=https://cdn-icons-png.flaticon.com/512/65/65686.png;" vertex="1" parent="1">
          <mxGeometry x="1270" y="130" width="42" height="42" as="geometry" />
        </mxCell>
        <mxCell id="bT6QLxlO-QxaZoZBgxad-90" style="edgeStyle=orthogonalEdgeStyle;rounded=0;orthogonalLoop=1;jettySize=auto;html=1;endArrow=none;startFill=0;" edge="1" parent="1" source="bT6QLxlO-QxaZoZBgxad-82" target="bT6QLxlO-QxaZoZBgxad-88">
          <mxGeometry relative="1" as="geometry" />
        </mxCell>
        <mxCell id="bT6QLxlO-QxaZoZBgxad-82" value="Selectiva" style="rounded=0;whiteSpace=wrap;html=1;" vertex="1" parent="1">
          <mxGeometry x="1130" y="330" width="80" height="40" as="geometry" />
        </mxCell>
        <mxCell id="bT6QLxlO-QxaZoZBgxad-91" style="edgeStyle=orthogonalEdgeStyle;rounded=0;orthogonalLoop=1;jettySize=auto;html=1;endArrow=none;startFill=0;" edge="1" parent="1" source="bT6QLxlO-QxaZoZBgxad-83" target="bT6QLxlO-QxaZoZBgxad-89">
          <mxGeometry relative="1" as="geometry" />
        </mxCell>
        <mxCell id="bT6QLxlO-QxaZoZBgxad-83" value="Convencional" style="rounded=0;whiteSpace=wrap;html=1;" vertex="1" parent="1">
          <mxGeometry x="1130" y="420" width="80" height="40" as="geometry" />
        </mxCell>
        <mxCell id="bT6QLxlO-QxaZoZBgxad-88" value="separando los materiales" style="rounded=0;whiteSpace=wrap;html=1;dashed=1;dashPattern=12 12;strokeColor=#009900;" vertex="1" parent="1">
          <mxGeometry x="1241" y="330" width="110" height="40" as="geometry" />
        </mxCell>
        <mxCell id="bT6QLxlO-QxaZoZBgxad-89" value="mezclándolos" style="rounded=0;whiteSpace=wrap;html=1;dashed=1;dashPattern=12 12;strokeColor=#009900;" vertex="1" parent="1">
          <mxGeometry x="1241" y="420" width="110" height="40" as="geometry" />
        </mxCell>
        <mxCell id="bT6QLxlO-QxaZoZBgxad-92" value="" style="shape=image;verticalLabelPosition=bottom;labelBackgroundColor=default;verticalAlign=top;aspect=fixed;imageAspect=0;image=https://cdn-icons-png.flaticon.com/512/1939/1939763.png;" vertex="1" parent="1">
          <mxGeometry x="1360" y="330" width="52" height="52" as="geometry" />
        </mxCell>
        <mxCell id="bT6QLxlO-QxaZoZBgxad-93" value="" style="shape=image;verticalLabelPosition=bottom;labelBackgroundColor=default;verticalAlign=top;aspect=fixed;imageAspect=0;image=https://cdn-icons-png.flaticon.com/512/3580/3580221.png;" vertex="1" parent="1">
          <mxGeometry x="1362" y="415" width="50" height="50" as="geometry" />
        </mxCell>
        <mxCell id="bT6QLxlO-QxaZoZBgxad-102" style="edgeStyle=orthogonalEdgeStyle;rounded=0;orthogonalLoop=1;jettySize=auto;html=1;entryX=0.5;entryY=0;entryDx=0;entryDy=0;" edge="1" parent="1" source="bT6QLxlO-QxaZoZBgxad-95" target="bT6QLxlO-QxaZoZBgxad-97">
          <mxGeometry relative="1" as="geometry" />
        </mxCell>
        <mxCell id="bT6QLxlO-QxaZoZBgxad-95" value="Compactadores" style="rounded=0;whiteSpace=wrap;html=1;fontSize=10;" vertex="1" parent="1">
          <mxGeometry x="334" y="690" width="80" height="40" as="geometry" />
        </mxCell>
        <mxCell id="bT6QLxlO-QxaZoZBgxad-103" style="edgeStyle=orthogonalEdgeStyle;rounded=0;orthogonalLoop=1;jettySize=auto;html=1;" edge="1" parent="1" source="bT6QLxlO-QxaZoZBgxad-96" target="bT6QLxlO-QxaZoZBgxad-97">
          <mxGeometry relative="1" as="geometry" />
        </mxCell>
        <mxCell id="bT6QLxlO-QxaZoZBgxad-104" value="emplean" style="edgeLabel;html=1;align=center;verticalAlign=middle;resizable=0;points=[];" vertex="1" connectable="0" parent="bT6QLxlO-QxaZoZBgxad-103">
          <mxGeometry x="0.3825" y="-5" relative="1" as="geometry">
            <mxPoint as="offset" />
          </mxGeometry>
        </mxCell>
        <mxCell id="bT6QLxlO-QxaZoZBgxad-96" value="Camiones&lt;div&gt;cerrados&lt;/div&gt;" style="rounded=0;whiteSpace=wrap;html=1;" vertex="1" parent="1">
          <mxGeometry x="470" y="690" width="80" height="40" as="geometry" />
        </mxCell>
        <mxCell id="bT6QLxlO-QxaZoZBgxad-97" value="Rutas optimizadas para reducir emisiones/costos." style="rounded=0;whiteSpace=wrap;html=1;dashed=1;dashPattern=12 12;strokeColor=#009900;" vertex="1" parent="1">
          <mxGeometry x="385" y="830" width="110" height="60" as="geometry" />
        </mxCell>
        <mxCell id="bT6QLxlO-QxaZoZBgxad-101" value="" style="shape=image;verticalLabelPosition=bottom;labelBackgroundColor=default;verticalAlign=top;aspect=fixed;imageAspect=0;image=https://cdn-icons-png.flaticon.com/512/287/287851.png;" vertex="1" parent="1">
          <mxGeometry x="385" y="900" width="101" height="101" as="geometry" />
        </mxCell>
        <mxCell id="bT6QLxlO-QxaZoZBgxad-105" value="" style="shape=image;verticalLabelPosition=bottom;labelBackgroundColor=default;verticalAlign=top;aspect=fixed;imageAspect=0;image=https://cdn-icons-png.flaticon.com/512/6722/6722989.png;flipH=1;" vertex="1" parent="1">
          <mxGeometry x="330" y="458" width="40" height="40" as="geometry" />
        </mxCell>
        <mxCell id="bT6QLxlO-QxaZoZBgxad-116" style="edgeStyle=orthogonalEdgeStyle;rounded=0;orthogonalLoop=1;jettySize=auto;html=1;endArrow=none;startFill=0;" edge="1" parent="1" source="bT6QLxlO-QxaZoZBgxad-108" target="bT6QLxlO-QxaZoZBgxad-114">
          <mxGeometry relative="1" as="geometry" />
        </mxCell>
        <mxCell id="bT6QLxlO-QxaZoZBgxad-117" style="edgeStyle=orthogonalEdgeStyle;rounded=0;orthogonalLoop=1;jettySize=auto;html=1;entryX=1;entryY=0.5;entryDx=0;entryDy=0;endArrow=none;startFill=0;" edge="1" parent="1" source="bT6QLxlO-QxaZoZBgxad-108" target="bT6QLxlO-QxaZoZBgxad-113">
          <mxGeometry relative="1" as="geometry">
            <Array as="points">
              <mxPoint x="-310" y="400" />
              <mxPoint x="-310" y="340" />
            </Array>
          </mxGeometry>
        </mxCell>
        <mxCell id="bT6QLxlO-QxaZoZBgxad-118" style="edgeStyle=orthogonalEdgeStyle;rounded=0;orthogonalLoop=1;jettySize=auto;html=1;entryX=1;entryY=0.5;entryDx=0;entryDy=0;endArrow=none;startFill=0;" edge="1" parent="1" source="bT6QLxlO-QxaZoZBgxad-108" target="bT6QLxlO-QxaZoZBgxad-115">
          <mxGeometry relative="1" as="geometry">
            <Array as="points">
              <mxPoint x="-310" y="400" />
              <mxPoint x="-310" y="465" />
            </Array>
          </mxGeometry>
        </mxCell>
        <mxCell id="bT6QLxlO-QxaZoZBgxad-119" value="Dependiendo&amp;nbsp;&lt;div&gt;de&lt;/div&gt;" style="edgeLabel;html=1;align=center;verticalAlign=middle;resizable=0;points=[];" vertex="1" connectable="0" parent="bT6QLxlO-QxaZoZBgxad-118">
          <mxGeometry x="-0.4615" y="2" relative="1" as="geometry">
            <mxPoint as="offset" />
          </mxGeometry>
        </mxCell>
        <mxCell id="bT6QLxlO-QxaZoZBgxad-108" value="&lt;span style=&quot;color: rgb(0, 29, 53); font-family: &amp;quot;Google Sans&amp;quot;, Arial, sans-serif; text-align: start; background-color: rgb(255, 255, 255);&quot;&gt;&amp;nbsp;Diversas técnicas y equipos&lt;/span&gt;" style="rounded=0;whiteSpace=wrap;html=1;fontSize=9;" vertex="1" parent="1">
          <mxGeometry x="-200" y="380" width="80" height="40" as="geometry" />
        </mxCell>
        <mxCell id="bT6QLxlO-QxaZoZBgxad-111" value="" style="shape=image;verticalLabelPosition=bottom;labelBackgroundColor=default;verticalAlign=top;aspect=fixed;imageAspect=0;image=https://cdn-icons-png.flaticon.com/512/838/838461.png;" vertex="1" parent="1">
          <mxGeometry x="640" y="468" width="20" height="20" as="geometry" />
        </mxCell>
        <mxCell id="bT6QLxlO-QxaZoZBgxad-122" style="edgeStyle=orthogonalEdgeStyle;rounded=0;orthogonalLoop=1;jettySize=auto;html=1;entryX=1;entryY=0.5;entryDx=0;entryDy=0;endArrow=none;startFill=0;" edge="1" parent="1" source="bT6QLxlO-QxaZoZBgxad-113" target="bT6QLxlO-QxaZoZBgxad-121">
          <mxGeometry relative="1" as="geometry">
            <Array as="points">
              <mxPoint x="-450" y="340" />
              <mxPoint x="-450" y="400" />
            </Array>
          </mxGeometry>
        </mxCell>
        <mxCell id="bT6QLxlO-QxaZoZBgxad-113" value="Tipo" style="rounded=0;whiteSpace=wrap;html=1;" vertex="1" parent="1">
          <mxGeometry x="-410" y="320" width="80" height="40" as="geometry" />
        </mxCell>
        <mxCell id="bT6QLxlO-QxaZoZBgxad-124" style="edgeStyle=orthogonalEdgeStyle;rounded=0;orthogonalLoop=1;jettySize=auto;html=1;entryX=1;entryY=0.5;entryDx=0;entryDy=0;endArrow=none;startFill=0;" edge="1" parent="1" source="bT6QLxlO-QxaZoZBgxad-114" target="bT6QLxlO-QxaZoZBgxad-121">
          <mxGeometry relative="1" as="geometry" />
        </mxCell>
        <mxCell id="bT6QLxlO-QxaZoZBgxad-114" value="Cantidad" style="rounded=0;whiteSpace=wrap;html=1;" vertex="1" parent="1">
          <mxGeometry x="-410" y="380" width="80" height="40" as="geometry" />
        </mxCell>
        <mxCell id="bT6QLxlO-QxaZoZBgxad-125" style="edgeStyle=orthogonalEdgeStyle;rounded=0;orthogonalLoop=1;jettySize=auto;html=1;entryX=1;entryY=0.5;entryDx=0;entryDy=0;endArrow=none;startFill=0;" edge="1" parent="1" source="bT6QLxlO-QxaZoZBgxad-115" target="bT6QLxlO-QxaZoZBgxad-121">
          <mxGeometry relative="1" as="geometry">
            <Array as="points">
              <mxPoint x="-450" y="465" />
              <mxPoint x="-450" y="400" />
            </Array>
          </mxGeometry>
        </mxCell>
        <mxCell id="bT6QLxlO-QxaZoZBgxad-127" value="Y todo esto" style="edgeLabel;html=1;align=center;verticalAlign=middle;resizable=0;points=[];" vertex="1" connectable="0" parent="bT6QLxlO-QxaZoZBgxad-125">
          <mxGeometry x="0.6182" relative="1" as="geometry">
            <mxPoint x="19" as="offset" />
          </mxGeometry>
        </mxCell>
        <mxCell id="bT6QLxlO-QxaZoZBgxad-115" value="Nivel de contención" style="rounded=0;whiteSpace=wrap;html=1;" vertex="1" parent="1">
          <mxGeometry x="-410" y="445" width="80" height="40" as="geometry" />
        </mxCell>
        <mxCell id="bT6QLxlO-QxaZoZBgxad-121" value="Reduce viajes a sitios de disposición final." style="rounded=0;whiteSpace=wrap;html=1;dashed=1;dashPattern=12 12;strokeColor=#009900;" vertex="1" parent="1">
          <mxGeometry x="-670" y="370" width="110" height="60" as="geometry" />
        </mxCell>
        <mxCell id="bT6QLxlO-QxaZoZBgxad-128" value="" style="shape=image;verticalLabelPosition=bottom;labelBackgroundColor=default;verticalAlign=top;aspect=fixed;imageAspect=0;image=https://static.vecteezy.com/system/resources/previews/009/102/019/non_2x/time-icon-fast-time-symbol-isolated-illustration-stock-free-vector.jpg;" vertex="1" parent="1">
          <mxGeometry x="-760" y="361.5" width="77" height="77" as="geometry" />
        </mxCell>
        <mxCell id="bT6QLxlO-QxaZoZBgxad-141" style="edgeStyle=orthogonalEdgeStyle;rounded=0;orthogonalLoop=1;jettySize=auto;html=1;entryX=0.5;entryY=0;entryDx=0;entryDy=0;endArrow=none;startFill=0;" edge="1" parent="1" source="bT6QLxlO-QxaZoZBgxad-130" target="bT6QLxlO-QxaZoZBgxad-140">
          <mxGeometry relative="1" as="geometry" />
        </mxCell>
        <mxCell id="bT6QLxlO-QxaZoZBgxad-130" value="Aislan" style="rounded=0;whiteSpace=wrap;html=1;" vertex="1" parent="1">
          <mxGeometry x="-230" y="150" width="80" height="40" as="geometry" />
        </mxCell>
        <mxCell id="bT6QLxlO-QxaZoZBgxad-142" style="edgeStyle=orthogonalEdgeStyle;rounded=0;orthogonalLoop=1;jettySize=auto;html=1;entryX=0.5;entryY=1;entryDx=0;entryDy=0;endArrow=none;startFill=0;" edge="1" parent="1" source="bT6QLxlO-QxaZoZBgxad-131" target="bT6QLxlO-QxaZoZBgxad-140">
          <mxGeometry relative="1" as="geometry" />
        </mxCell>
        <mxCell id="bT6QLxlO-QxaZoZBgxad-131" value="Confinan" style="rounded=0;whiteSpace=wrap;html=1;" vertex="1" parent="1">
          <mxGeometry x="-230" y="220" width="80" height="40" as="geometry" />
        </mxCell>
        <mxCell id="bT6QLxlO-QxaZoZBgxad-132" value="Medio ambiente" style="rounded=0;whiteSpace=wrap;html=1;" vertex="1" parent="1">
          <mxGeometry x="-570" y="217.5" width="80" height="40" as="geometry" />
        </mxCell>
        <mxCell id="bT6QLxlO-QxaZoZBgxad-134" value="Salud&lt;div&gt;&amp;nbsp;humana&lt;/div&gt;" style="rounded=0;whiteSpace=wrap;html=1;" vertex="1" parent="1">
          <mxGeometry x="-570" y="152.5" width="80" height="40" as="geometry" />
        </mxCell>
        <mxCell id="bT6QLxlO-QxaZoZBgxad-143" style="edgeStyle=orthogonalEdgeStyle;rounded=0;orthogonalLoop=1;jettySize=auto;html=1;endArrow=none;startFill=0;" edge="1" parent="1" source="bT6QLxlO-QxaZoZBgxad-140" target="bT6QLxlO-QxaZoZBgxad-134">
          <mxGeometry relative="1" as="geometry" />
        </mxCell>
        <mxCell id="bT6QLxlO-QxaZoZBgxad-144" style="edgeStyle=orthogonalEdgeStyle;rounded=0;orthogonalLoop=1;jettySize=auto;html=1;endArrow=none;startFill=0;" edge="1" parent="1" source="bT6QLxlO-QxaZoZBgxad-140" target="bT6QLxlO-QxaZoZBgxad-132">
          <mxGeometry relative="1" as="geometry" />
        </mxCell>
        <mxCell id="bT6QLxlO-QxaZoZBgxad-140" value="&lt;div&gt;de manera segura&lt;/div&gt;&lt;div&gt;&amp;nbsp;para evitar daños a la&amp;nbsp;&amp;nbsp;&lt;/div&gt;" style="text;html=1;align=center;verticalAlign=middle;whiteSpace=wrap;rounded=0;fontSize=11;" vertex="1" parent="1">
          <mxGeometry x="-400" y="190" width="120" height="30" as="geometry" />
        </mxCell>
        <mxCell id="bT6QLxlO-QxaZoZBgxad-155" style="edgeStyle=orthogonalEdgeStyle;rounded=0;orthogonalLoop=1;jettySize=auto;html=1;endArrow=none;startFill=0;" edge="1" parent="1" source="bT6QLxlO-QxaZoZBgxad-145" target="bT6QLxlO-QxaZoZBgxad-150">
          <mxGeometry relative="1" as="geometry" />
        </mxCell>
        <mxCell id="bT6QLxlO-QxaZoZBgxad-145" value="Opciones&amp;nbsp;&lt;div&gt;sostenibles&lt;/div&gt;" style="rounded=0;whiteSpace=wrap;html=1;" vertex="1" parent="1">
          <mxGeometry x="40" y="30" width="80" height="40" as="geometry" />
        </mxCell>
        <mxCell id="bT6QLxlO-QxaZoZBgxad-154" style="edgeStyle=orthogonalEdgeStyle;rounded=0;orthogonalLoop=1;jettySize=auto;html=1;endArrow=none;startFill=1;startArrow=classic;" edge="1" parent="1" source="bT6QLxlO-QxaZoZBgxad-146">
          <mxGeometry relative="1" as="geometry">
            <mxPoint x="200.00000000000023" y="170" as="targetPoint" />
            <Array as="points">
              <mxPoint x="160" y="30" />
              <mxPoint x="201" y="30" />
              <mxPoint x="201" y="170" />
            </Array>
          </mxGeometry>
        </mxCell>
        <mxCell id="bT6QLxlO-QxaZoZBgxad-164" value="para esto existen" style="edgeLabel;html=1;align=center;verticalAlign=middle;resizable=0;points=[];" vertex="1" connectable="0" parent="bT6QLxlO-QxaZoZBgxad-154">
          <mxGeometry x="0.577" y="1" relative="1" as="geometry">
            <mxPoint x="-2" y="-19" as="offset" />
          </mxGeometry>
        </mxCell>
        <mxCell id="bT6QLxlO-QxaZoZBgxad-158" style="edgeStyle=orthogonalEdgeStyle;rounded=0;orthogonalLoop=1;jettySize=auto;html=1;entryX=1;entryY=0.5;entryDx=0;entryDy=0;endArrow=none;startFill=0;" edge="1" parent="1" source="bT6QLxlO-QxaZoZBgxad-146" target="bT6QLxlO-QxaZoZBgxad-157">
          <mxGeometry relative="1" as="geometry" />
        </mxCell>
        <mxCell id="bT6QLxlO-QxaZoZBgxad-159" style="edgeStyle=orthogonalEdgeStyle;rounded=0;orthogonalLoop=1;jettySize=auto;html=1;entryX=1;entryY=0.5;entryDx=0;entryDy=0;endArrow=none;startFill=0;" edge="1" parent="1" source="bT6QLxlO-QxaZoZBgxad-146" target="bT6QLxlO-QxaZoZBgxad-156">
          <mxGeometry relative="1" as="geometry" />
        </mxCell>
        <mxCell id="bT6QLxlO-QxaZoZBgxad-146" value="Opciones&amp;nbsp;&lt;div&gt;alternativas&lt;/div&gt;" style="rounded=0;whiteSpace=wrap;html=1;" vertex="1" parent="1">
          <mxGeometry x="120" y="-70" width="80" height="40" as="geometry" />
        </mxCell>
        <mxCell id="bT6QLxlO-QxaZoZBgxad-150" value="Rellenos&amp;nbsp;&lt;div&gt;sanitarios&lt;/div&gt;" style="rounded=0;whiteSpace=wrap;html=1;dashed=1;dashPattern=12 12;strokeColor=#009900;" vertex="1" parent="1">
          <mxGeometry x="-100" y="30" width="110" height="40" as="geometry" />
        </mxCell>
        <mxCell id="bT6QLxlO-QxaZoZBgxad-151" value="" style="shape=image;verticalLabelPosition=bottom;labelBackgroundColor=default;verticalAlign=top;aspect=fixed;imageAspect=0;image=https://cdn-icons-png.flaticon.com/512/9405/9405859.png;" vertex="1" parent="1">
          <mxGeometry x="-75.5" y="-41" width="61" height="61" as="geometry" />
        </mxCell>
        <mxCell id="bT6QLxlO-QxaZoZBgxad-156" value="reciclaje" style="rounded=0;whiteSpace=wrap;html=1;dashed=1;dashPattern=12 12;strokeColor=#009900;" vertex="1" parent="1">
          <mxGeometry x="10" y="-120" width="110" height="40" as="geometry" />
        </mxCell>
        <mxCell id="bT6QLxlO-QxaZoZBgxad-157" value="compostaje" style="rounded=0;whiteSpace=wrap;html=1;dashed=1;dashPattern=12 12;strokeColor=#009900;" vertex="1" parent="1">
          <mxGeometry x="10" y="-182" width="110" height="40" as="geometry" />
        </mxCell>
        <mxCell id="bT6QLxlO-QxaZoZBgxad-160" value="" style="shape=image;verticalLabelPosition=bottom;labelBackgroundColor=default;verticalAlign=top;aspect=fixed;imageAspect=0;image=https://cdn-icons-png.flaticon.com/512/1707/1707358.png;" vertex="1" parent="1">
          <mxGeometry x="-51" y="-193" width="51" height="51" as="geometry" />
        </mxCell>
        <mxCell id="bT6QLxlO-QxaZoZBgxad-161" value="" style="shape=image;verticalLabelPosition=bottom;labelBackgroundColor=default;verticalAlign=top;aspect=fixed;imageAspect=0;image=https://cdn-icons-png.flaticon.com/512/2427/2427769.png;" vertex="1" parent="1">
          <mxGeometry x="-51" y="-125" width="50" height="50" as="geometry" />
        </mxCell>
        <mxCell id="bT6QLxlO-QxaZoZBgxad-162" value="" style="shape=image;verticalLabelPosition=bottom;labelBackgroundColor=default;verticalAlign=top;aspect=fixed;imageAspect=0;image=https://cdn-icons-png.flaticon.com/512/994/994873.png;" vertex="1" parent="1">
          <mxGeometry x="-610" y="157.5" width="30" height="30" as="geometry" />
        </mxCell>
        <mxCell id="bT6QLxlO-QxaZoZBgxad-163" value="" style="shape=image;verticalLabelPosition=bottom;labelBackgroundColor=default;verticalAlign=top;aspect=fixed;imageAspect=0;image=https://cdn-icons-png.flaticon.com/512/1995/1995111.png;" vertex="1" parent="1">
          <mxGeometry x="-610" y="225" width="30" height="30" as="geometry" />
        </mxCell>
        <mxCell id="bT6QLxlO-QxaZoZBgxad-165" value="" style="shape=image;verticalLabelPosition=bottom;labelBackgroundColor=default;verticalAlign=top;aspect=fixed;imageAspect=0;image=data:image/png,iVBORw0KGgoAAAANSUhEUgAAAecAAAByCAYAAABp0RkQAAAAAXNSR0IArs4c6QAAIABJREFUeF7sfQd4VFX697n93unJJDNppJOEAKGDVKP+VbCt6+raVtddXXVdQBSliGCkgw3F7rrWXXX1s6y9oCjSe0ghIb236eXObed8/3MnEwIo4C7u4/c9c54nz83MnHbfe2Z+531/7/seAsRLXAJxCcQlEJdAXAJxCfyiJED8omYTn0xcAnEJxCUQl0BcAnEJgDg4xxdBXAJxCcQlEJdAXAK/MAnEwfkX9kDi04lLIC6BuATiEohLIA7O8TUQl0BcAnEJxCUQl8AvTAJxcP6FPZD4dOISiEsgLoG4BOISiINzfA3EJRCXQFwCcQnEJfALk0AcnH9hDyQ+nbgE4hKISyAugbgETgucOxAyHCOqTgBAKgBg0PX5D/eCjr17QWdnp/5ZRycArgCA9kCH1gkA8/OJOg10nKTztP7POvprxV6faj4dvlYtI7mIhHLolDI6fvzTHeNUczjzn59qZtE76RA9Kqh6Wz7z48d7jEsgLoG4BOISOB0JnBJ4Gj3IdtPNd3nq6tuA2ZIEAEkBVYFAVRQgGHkQiUSAQTABj8cPDEYrIAANNMQATaMAQXEAQgQRIElEkPp8IAEAQSCAUPSPoEgA9U/w5/g/EvVf9deahvQrQVCxz4+9kgRABMQd44p6n9Heoq+J/nHwv3hcEhCxjwCuoCIENAgBRVH4pYYgpBmS6gz4XWMgoNg0Z8aWQCCQRSJSMhrNSAxLBCvwSJYVRFAIKaSENACjgwICEADPE4eokXhA/dpfdFnrb+mf6/dKYHkRBEWQ+CUBCTy7qJQgIAlEkCTZ3wC/d2KBGgAIyxTPAMtBv6vBhQBIlykJEKARxDURjRtBAqgQqiKiCQAVBEhVEXkGyW8rgaav+qpef/50FlC8TlwCcQnEJRCXwJmXwGmB88Tpv/WQjBlIMgDhiAJ43gAkSQIsSwOKgIAkSQA1AkACX0kAUfRKUBQgCRpogACwHzQRiQCBsaK/ICU2hQFwPgZ8SZL+YVAGJNAwEEXBDhCI7AenWM8YqDAURcEdgxYel0BQr4cQBAgwgOJsQFJwGwigqgCgqsBks2jBcCAPAMKcmmQ/0N3TSekbif6x8L2wLAsURQEEheeHu4+B8LFXCKNbjx8siOjfdETB9ahcomMR+uZE0+c2SGRH56FvdPTNQH+BAG91Buapb1awfEh9fgjPHz8bQACk75IgICm8tcD7IQLvu0CCkd5OKu3/6D340pNnfrnFe4xLIC6BuATiEjgdCZwWON+/4kWPL6gBMaICkuYAxwk6aCiKBEgSAFmWAcMagMfj6wyFpF5F1RAGZ0nVVFXRVBVBrJEiCCHSAFaFCYQQBh0C0IjGWt3APHRM0jVMDHI6spxQUL96jMFZ0/pRHwCsogMSIQQJ2K+/QkRgxNE1UQRIrCzq1VUMSEiFJJQ1HkJIkyzPJFAAjQ6Hg4TVZglJcmgEgpBLtFl39fR0WwRB6AEAHVQ0WSTJKFQSBE0gDc+RQniqGPJJSA66HQyHFEAE3hRgDR/pNxdV8TFo9wOrjppRDNWVXxJGlW59kKg8dL1+UCEJCm9OkIZVZ71EK5wgMP0NEgBI6f/pewhE9gsNIkBrCAKKQCpJIaDwFgZ+qUWaO7yVr796OgsoXicugbgE4hKIS+DMS+C0wNnvBR53QAOCkQLhCACKCgHDkjq2YMVu85bdv6uuaahtrW9RAMkyvMCxUCYJSYPI6/ZjHIeqBpFKaAgoqn4XurIKAKCRps+BGUxLD2KoMdTGbptQo6CoDLTGDRlAEBApsQ4HyYgBNFBAdDyEohsApr81oUKkUqQmq4CGQOmlEWNkaOoVn9c7zmI1aZFAqADQpJaUbNvV1tTkMFosj1s5632BQMBgTDSbZM2vMYxFoiQANQ6QIAgAQUnHQCjSuFPKF5jO/EM9dY9GEKIURIRlBEAAAGAGBs5IhgAAwW2hvoSimos9h9/48NT9xGvEJRCXQFwCcQn8HBI4JXh4PMg2Z+njHn9IBaIMdTMuzdEAQhXIqgYY3gz8ARHwLA+CwbBHU5GiQRKpqqbIsiorsiYBRKqypmHrKdZ5Y3befk4Ya346awqQbgKO6ZbRK0lh7VInVAeuMc0ZIYgUqGD6FGGzNtakseaqK5+A0q8czWLmFmvOOn97VHPFraFKUbRTVaU3RUV6lSao50IB/7TExETgC/vyeIqDCVbzrtaO9mSWZVaGKx9fOmTG6o0IoGk8z8uePpdIcwweliCwZQCTxFrUJoBnja+DGPSoUozN55iJ1i3J2E6A6YCjjxZ3FWOZdZ2Ximq8AGvkesHq9VFiWYVKlEzX68BBlHO0flQDJ7DNQB97oGAbAqETEJh6IDTIUwCqggDkzxSxvqW7/LUXf44FF+8zLoG4BOISiEvg1BI4JTjv9yDbjAlXezTKCBSNAixv1LlWDamAYRggRRAgaBoYOA6IsgQIpAFK12YJ3VkM18G8J4QoynPqjlJUlAPVHcL6HZn6OeMYF6rbXzGc/cAVYdjrf5/Bvk0Iuzz1gzK+6uAXvQLtKBhi5TkKirhrBFSkAox9goHbAgCxlGHpVWIgNBWDs6urO5+gOJhoT9jZ1dOdzLPcaoaiHk5Oz6ioq6lJA6IEaJsNqKp8dN+AMfN4vy1s948ip27uxpw33orofl/9DmwDLmP97PjAfQ9ycBtwLItZ+mNyiVHOMev+APcdHXXAPK7/H+XfMduuzwe/hjIAGgUA5AHLsCDRwpQzascrrQf/9uipl0+8RlwCcQnEJRCXwM8hgVOC8+XzHrN5OyIel08BkOSAKGqAZGjA8gyIRGTAc0YdhDFAsmzUHi3JoqapmkSQhKaqKsT4CBGACBLYSo0RWedosQYMsb7b722M/aMo7AYVfU3oVDQG9RiXqoMbhjddQ0S6Y5eGmWaIaVoASULnZjWC1H2gscGcIbDLGsS4hGvj0ZEKNKzhMhqO9PJ7gM2etOl/Le5lqqauCQQD0xwOB/D5ffk8yUFbYsLO5vr6ZN5sXm2lk1YrgrI9FAqONJksIBIJ72doOoy9rCFWxPEuBJGYUO+H3n6PcZ03xp7Y2DEL6TsEUt8p4M2Dpm9oYro2whLQm/VrvjFwHwD96KYGd4RlreptdbY9CsZIh/2oJo2rxLjrAa05ylFjGWB+HkEJcBRPANKIzSFmnlS+VML1Fd3Vb/z1ZAsuP38WF4mYjD7kJhIoHra0GPwAvB0jwH+Otfr/WZ9XUbbsXjOCRgJBA0GQYZRAhsSmps2RwTeqy5mDRpoRYNOB973/nwkhfjtnWAJFRb+2A4tZp6oC/gAgKGaAaiNJEUEY9cC1oGS5qurp4BkePt7dGZTAKcH5scfesxlT0xzhMJXgSMtMEIy2zLrWlrqq2oouV09AlqGqkoqGwppCwAjUvHIQRWQFgTDmYFUUieDFEQIh/Jpkj+VkoXx0fMieMBfED7hy/+AtE3rfsRLGQ/YXAxgcmI14miAiKhJpAPH7vZ0+n9VmGE5xzOvuvt7CxFTnprAolRkEfp3b5ZpiT0oCwUAUnI02086O1tZkwWRcJ9oN96eo3Jaurs6zkpKTOiMRcVRQ4nw2FhhIDkBGDGoUY0KaEjzhXqBqir7nOMXT6zn6OUkHj4+L+g8fvRMA0K33gedJsj5Ec1Z9DNEdpPAce6vKgpkl117aUv7jnHNGxlUCEhLObT/y/CfFxWVMVVWZbE8//zxX+5eb/sMJ/qTm6UU32sNyh+pp+Mr3kxr+Aio7imZd0HP40y9AaRkNNlcivLFJzj5vZm/Tps9i08uYfJVAiKkX5NkSP968uUzNHXbNxQ3Vb378U6afmH+9RaAppv3wq66f0u6/Wtd6cUISQ6l9ff/CDhA/a8kuvYmXO1wmNs0ebNr88jEboZ914EGdD598c6LX4ybaD793Rp9J/qRbMtjMjB45mEhYeziYm5sA3367CgHwwECoZ2lpGdXTA0jOnpgvq+6uyu1l7v/Wff+/Ok7auFuTAl0RRFIq9LX8w/Pfuo9TgnPZYy/Z1AB12BMkHBpiCZWigWAyS82trb0hUXQpsirqVLKGkKyoYkRGiiJrqqYiDeuniqJpGsR+2tieO+BZrXs267G3mgogoAeinHWGGVu++xlmnbuN+kPrHO4A86y7Rkdp1v54qaMyQ1ElFRdNw6ZrWr9PWVEQSZIUSVIfkEjdDRju3Z6u3pIEp/MbVYw8wGBw9vRNTkpKAgG/mC/QtGaw8LsGwLmocUlq9+htXV1dE5OSk1s1FY7gSOI8qKiXUAwtkiTVA2VFJkkKKKoCcBgVDjPDpf+WYrFN+nuYRqbJU+RnoQbxyf13GGOOMc+NY7RPVkgyeu94BuQgG7ce4kUhpMphRNMMwTICSRAapWnBAyzss9Xv+tuPemtn511+eYTKTrc6chfJwYCDpoJL/J7Dh7sb3vvoTC/cgoJbkzSNJClbO6zd+2FfrP80/D6fRnaXl/Uk5v1qiLv+g9b09Il2ZMwjQhG/5mv5+N/+EjlLfu0AwAQ4pCkth36eL2PysOsukshkm82S80wkHOyjYNtaQmvp6aj65IOBeyyadalgnZxqtmQ+Q4HAB6K35sOq3U++dLoyzh59uU1Th+e3VqzakzLyhrO7Dr327em2/W/VY4dcPUJufavCkHRrahi2hoD7U7+56Dw7CFgAZ9LkvpozC9iZY2++tGXfix+ml8y7MoUJf7J37/NH9/T/hZsePvmuxIgEEuv3PVaXPvTy0e1H3j9wJoYtnnprJkmmjFRV4SPBkNisRmS3DAg1olI5vIGjRNEdJNRQHQlF3pGclidLRgWpgbsE7dCm7dtf/H8GoLNH32SjIM9iha++/LVBqsyZkOKJfeSV3O4gqEwErCaubvPctp9nlB/u9ZTgfPlNZbavv9zuMVrTgQp5EJIhkBABWIHXQ6koQj0aX6zznVE+We3nlzE4adgK3c+V6glDYpFD/7uni8UPH+sGFk3PcawbGDbeDg5F6g8d6seuwdzq4FuN9Y/ngUO+KIoCCbaEfwJArAMUeLGvzzva7nBslmVxGc8a1vd5es+y2+2DwXl3R2trkmAyrRWLGu5P7R69taenZ5LD4WhCsnIOxwnPdHZ2zMQu6ZqqRt3X9X2HbsIGGKhjJbY3GTxXzLEfEzB2dP+iN8O7jEF7mpg1e6DP2C7kmDr9n+JxYnI/Xj7R+hBwLAWkSCQ6TtAP8osLWpDS/lT9rhfXn2whFoxb+qBKJs1vqDxiTE033m6yuhqO7Pnrl2d68Y4Ye/8wl4jCndWrmvNKbnDEvpAFExeOIrmMRaomBa1S7R179z6v++s78m/N66l7vv7fnUfhmGvSava/2VF0Vlm2EvDR9ZWP1f27fZ2s3fDJi2Z2uJhQRGG/S3EYWj2uPY96697YcHybkeeunE0zqXeTmvQZqXVu3v3Nin+e7nxyRt04kaHHpIVl+hZB8D8jemt622pf3XW67X/ueomZfxqO+JREo2C7WxZD79FqaDNt9AdaDj3jcYy4z6m5+xJcHc8fPlPzyM+fwwG7+RbBkDSKpw2dYd+R1spdj5yUvjlTY8f6yR9579kGW85Uf7Cdbtq/anl+yfUZdeV/PyM/+qOmlX1EUPR4BOFzKkDbgkHNpELbO+0trSAjK7kSqr5bzbyaJoXlWU7nyJuAFlwiByrf2L//xeYzfZ8/V39ZQ2++ONFRsF/1Q1FiW4fX7n36+59rrOzsq1JoU7aRtQ0pF2XCQKCeiQ27V+z+ucY7vt9TgvPkyXcJvNMQ7ugKAUQZgEIwQAMUIGgKaJoCaIbUAUl3+MKkMfaSJkiEIKlCqAc1Q90tOAo6GIuwc7HuQozf6E+ucTRc6jgUiQJMjEKN9hHrS2/fD86DgC/WN66HaJomFEXBPDAfCoWAKIog2ZH0shyJPEFz/N8GgzPHGR5ye/omYXD2+8K65my0CrvbW1qSeINhbaTSuCR1BrMNg7PT6WyJROSpVoPwSHt7x29NJhPeczSxNKPzgjjjWP+4+nz7p4nrEDhJGYl9svW8K4Ms+7FEY4OfEr7B4wA7JgBcDUI9hdoxJRojHnUGOwraR93Ool7z+JFoUFNlQGEvdpKgzRbBCFR5cyTQeKCr4h/PnGwRZo24ZyVjzLmrbk+1YeiI7D8rak1jU+ULn5/phTt00orlVmP24t6ejpKI2Ojqrn9W3y2nj5o/3+3nHxbdIZCZnXh1y8Fl/8wffeOvzInF73d2tV3UVfXkp//OXMZMXZAWkWyzBM72V4oIXbb7+3t/lpCyhKw/zeLMuSLUhG9YLlyPlOon2ytfOwGcR5Quu5rnh1xvMRnqQp6GbTs3LX3ndO9ryLDfzzBapzxxuKJ11OjxBSDob5hct69sx+m2/znrmdNvtCPeQQmC9f3eLvfk3Mwc4PX3jki285Qoq9ckmLNmBX3Nd9cffOCbMzWPwvF3X4ZIu+1IXfsrKU4HMNPutbWHnlh8pvo/nX4chfc8G/Bzt2VmJ+5L5QKTegIdaVV7n285nbYnq1NcfBVLWzKv1aB8oHLXxoMDm4EJj7naOnoTkxPYD1sryi7D748efZNNIZxZHMPlcrC9ffueF38xG7ZTySF/+J1rEpOGz1cIpifsr7+xZt/Kr0/V5t/9vLDwj2aZS33PEwDnWRKS3gJa25MtBx/52TYDPxmccYNzLp59odmePjQ1NdtG8YJRIwARkaSgxxPwegNKWFaQJokKVFUFKth+LQEoY02y/w9AMuq2NJDmMjaN6LvYWfi0C94F9Icp4SsLWKBhg/dgVySsdkdTg2HbMQJQDRI0fRHUtDkejwc4HM5XZFV+3GQ0vtTW2jXK7nB8K8viUgzOLnevDs7YrE0wSE2yWve0YXAWBB2cU6ZjcO6e5HQ6uhAiSxiAlnd399yenJzcpyjy7xjA75GRzBBklGtHx3HpSOfZjcB4bLbygdsPgRAgIsdy86ctG333M4jH18cwAuNxHeB4ZiKiIDxHglKQQWMIyAJSU8Nk2/ZV7bkTbruiYfdz755s3Pwxi1YbLHnzyrceEkaOGzlbhs31NbtXDvClP2XOP1Y3e8IdKZJse4YkEi7nOLYAqB09DXvX6fxy1sRV10HCPofQGD9FiQ837pz9ZfqwW5eIyLLSbrOef2TH0q/+nTmUTClz0GzmclH030aBwIUVO5d+8e/0c6o2w8YvviisOoiODs9HOTn2ap9753PdR/7x+PHtRp+37PoEe+FNqqg0+d3NXx3c+sBbp+o79nn22DsvJEBeiQyFXxNI/hZo3jfaKpaUn277n7ues+QGI6RsV0dEcLuBdnzBUMZn2hL83flywlYprCUbhfDvDm+/f9uZmocuc41HHGe8z26zery9Bz+r3vvk02eq/9PpJ2vcqvmiyD7McOqOdqs0vVhxp1VtfeI/Budhw67I4pOsxv1bXqoaeP7YBEwObezsctkcicwXTRXrLhz8mcNiSmA0b8bWra9vOZ25/xLqpA29/WlZs/85ZUheBULdd1Z+t/hnA+fM4X/4vYYyrjCaU7aryPNVw6779/w3ZXBKzRn/jp/z64VlrME6NMmRZkMUYyBZhvB7/WFfMOIOBmBIwlnAZP0PJ+zCyhzCRLOKMC3M6IR0lHTG6SWjyTRjKTVVPal0f4nF68ZssVGmVA/+6Xdh7ieZjzahSUrX2mNFT0Udy7gFEKFpkKIp7nWGo4oYmnmppaXZkGBLeFVUpA08L7zk7vUMgDPLCgOaczAQyAM0pR0Lzg/d55y2YjvWnFNSUrpDilJsJIhlvT19d6anp7f4g+J0k4EdJkryuSxNI4IiQ0jVTkiPgrCiOiAHbEWIeWurKOa1TUCcOU3fdgykL8XpyAblIO8Pz8KcdbQ9jvQGOFM2TlKm59LGnuHRTGv4dSyuCvPfOuevR3dRCCoKwQokiZBMMbRhPwy2JBzZsfHlk4Pz/DUkmz2vdn8jP7SoYB4gu+sEDh0EQiIAogjKdy5sGz785kSKihiAIAD8vsvtBu3lfx0w4ZWU3O4IA4bVPwdi1IlPEIDLLYL28o1tGaPuSoes9a80ZZ6pSeQUC8dITLilJ0IoKEgXeWhSS2mBVGuy6LNbzWHaZDY+W1Pfd3FKUtJlVip0KBgOqwB3rRcRAODGnm+grvxTfQ4lk27JEAQBTxdIci/E5uzcMevGm8zO5wOie4xZQL8CUmAfENuAqvrUqqq3u2K9TSqdkyEAO3BjN0RRBEFVCjTsff60HdNyR99zsSQ7ktube17KK0z9jGdb3q3c8fgLx8t84v+UXccY0m/jGD4khvveUUN9X5Kkoi94lxiVGb4HfJ/4PnAp37y+HT/0kpJ7jF7WMbplz73bMkZvOJsg6FpOc5GGRADCIgB1O8sGnsUEvBGScC5aEZT3PyNsRWAZkdQ718exA9EtAhGEQfnO9W0lk67PACDxR5dJ+c6Nbfklt2QY8Pz65yYk2oFLDAOKNkBf2KV07d/YmzZufhJQbHagMiLFGVUVybVJiZZWpHruJKW+Ktw4JHplTGmUlN6SgeeDZS+KYSAIWAKYNhaB5A0EDxx42Zsx6pL0RD6F8EtqsOnAy15dq3TkODiQpAYlYnL19nvfK5q47vcpBvGtzZvLBpzCJk263iIKgkXAa7h/yeBph9vE3rq6jdJP/WHOK/m1wyjYWf3eE/G6xmEUGbcoiH0gwUrvrP1+9uTccXcOadj7RAuWtcaIpC4qMSpxfA273KCu7t8ze2N+lqPz6jq7PXabWfq8peqpmSe7h9j3IbqYol9bt9wll2+LWqtiBT9Te+Kxzx0/B1F0AVWRSFKmEWk0IWylxGtTDXi7L700TXv3XVcaEOx6v2qgw308358/6XqLQUi34LWJix336XYBhpG6Y7RVRvEdGyUtYbYtJbOCVHrurNm2dACcS6bc7gCahQV4TYjRNaH/Fg36zYndQ+HU2WkcQ5B4JeF5hmM/FPjW+3+nssb8ZTLDJldGghY6KdkPD2wu062ik/C619fIwI9L//IWgeQLwZr9fzvZWUynvYxOCc7jbr2V6dxFyZ2eIEAkBwDNA6AgQBkMQBNFQNA4jnmQtxbmnKOJL6KG65jZVg/rOco3R021/ayynp7jJ5aYqVfHnn61eSBsKBqipP+RJDDbE9dxDFNvMJg2tDQ2GOwOx2uapj7GctzLPZ19JTHNeTDnPAic97a1tNijmvND96VMX7mjp6dnotPp1MFZQOCBPpdrbk5OTrfo849nDMJTrZ0dl2myopv+cWjYDxVs5tZDyGK5sU8S190fBPaDcd8/GBc+KL75qLl/8MEh0RlFze0kICmcY1sBkZAPFOYMb4FSx1NHdmw4Kec8fNLCNTQ/dN7B76v4EeNGrq7Y9YclBZPXTTQZU25QwvJXHAiDiNQrkkSgmRD4qzXFnsLwwt96vPXO9gMbPi6Zco9Dk5kZlCmRlkRlOEdRFkWBNaKihUhEblch0QsI5VLawj3d0NBuzE0f+SUD0UGrIJNIkja4oOJHvO1+nhYSkRhYcHhXnydrIqs213UTufnF3xvlyDaGAWSf7HuZ4Rin3excH/Y231ex90FdEy4uvcNUtfnp4IjSNaUJBuulHm/v1xXbln1SOPHJ7NrWjgZrgg0k202fGAn5iMCKXQGxeW/F1ue+nHrJ2syAXxlt5i0JJEFeSNCkKyJJ2yGSod/b8FXt3ucHnNZOtqKHTlx4sSQmp7c0dTyXn5/+f5Tw4U+aa1742/FtZlyy7nqaTfmT2+viDRx9vZHgzSExdANpEHrELuLRvXtvU0ZMXDDekJB6OdTYVElGrxAqdJRvm/vOiCnrL4hQnMCw5l+Hg4HdJpOwi5HVP6iaBBSXvJBIDGYf3r7iEB5zcmlZPkWm/V5D8mZfMFzJsQKJkJQOydCURIf9VxRhzPZ6JT+pCS9lJwtP1nTXZPr7/CJnNV9kEgzs3q/veba0tIz3a8w1CHB8wMS+RAS0dE3z5JAEnGUgOZpAnBsgrlGBTF9IkQ5oLPKqYeUso8DdiFS5vGHPgsfSR224rb29/VlHihkkJ1je4gmyW5UilVCO1ACS7i7KzT9yqK3+txQkJtrtyWM0jcqSIpI7Egy+wrCa1xfqagcMs4dijNdSAKbYTfzfJDk4S5LJFlEhtISk9HYCcXMEBnWH/A3ePVuWPxb9wZ1jCVOm3ziSU+vCkny1SRCcoigdhFB4Xhb7ZoRd5f+q+gkntWGgIInUUTTiDCokJkgKNCkk45aB9eKWhoaJmTkJW1v2LJhWPGF9CsciMqwwaQJHn8OZwEUEDbOliNZCIertPV/NexJcdRUF3v7pYYrZ2TfZkCGj1ucPJpsMwU/aav968Y+tyWGTFpzP8KYIAspsgzlxFKMkQkVCH3OUVKGKnZ9u21amA3Tx+NmzaDZpr8WWtExV0DSeBtWAVNskUs2VpchXe79Y+kx+yYIMi805lWL4yVCjnyWJcHEk6LLbrPYOhbT9WhTlAwQKUYIGnt++/W4diqdOXWDuk+GVRqOjl2XMFwJI836fb7eQan5d6+684MAu8C8AymBywe1P0YL9DqMtudLAKXPLv7hXB2ds8dKgcRJrMJggQJORQvAQaTs4kXtT4dvGlW9doVsHho2bl0qAFIbkifMZhkplVSVV0ShJhBxH8CbBG+xhGaPySPN3y/Yn5s+xmAzpDyY7EnmEWv+xb1O0D1zGTF5+Ns3bZwAajkYIFdMUCxRZLAdK6B1F8W/Hm9efiGgnVD8lOJdccI9RFIVgUEKA5IwgFNYAw3FAkTX98AdNlQYyT2GOM6ob4xLjO6OvdUewftCI0sr9p1LFzqTqz98RSxJyuteoBn60bww40bzfClBVFUTCYeB0OtdoCDUYjcYNzXV1RntKymsEQW9AQHvZ1esZmeRwfCtJylKeZQYcwoJBMRcwlGY3Gfa1Y3DWOeeHFqdMX7mzt7cXg3NPUJaHmSj6ge7u7rlZWVndvpBmLItMAAAgAElEQVRnnMloe6Ktre0KPA+LxaInYYnR6McDdRQ4B6cgOQqasSf1Y45usc9j3uDH8PLHJSIZ9NR1ulon4xGm4QlEkzRQNZFkWMw9SMBmdnwL5PYPD3/3yCMnW1zDJ927RgNZ8w4fbObz87MfNCdoT0kkvNbVoz1uM9ndpBK5gST8AiH4DLKsWmgma2NzczeRlZ18OYXkBpZQp1msiet7A2KbKEY+IghwWJPVRECRd7As93nQRy9heGW6xiqPBYLBbJvRsQaGw94kA+yAANWotIHxqmBrb08XSEtNvkyWgn00b3y1tzeYn2xLeErQIm0MSbREOKItIoEZnY2eFSOHZS4jI3vX4l14cWmZqWozCI84O/nDw1WHL8rJSVlwZNeShzLGP/IbgzHxn119XWRyonE1Kfl9PKfWQhCgSZJtN5hyZTNv3xP0dX1DIPWtiKLYeIPpFoo22H2u9vWC1vrCrl1PnTJEZsTk+y8JRpIzmqqOPFMyftgHUqD2w5ryx0/IyjbxnLLrLPa8XymaAuSI8kbYLY80WezLuz1uZDAz80i1z09TNCVqBruiMnd3tXQ7s3KH3C0GAg11B+78IGXMuje8/sA1KQ5HJVDBX3iS/Livr8+YYHdcEhJb6zsOrdEdrkbMWDvFasr52B8IraEB+EhUCIfNJrwtKS7CH/Q+bTE6qklCGOr1hB4UDMy+iDk4Re0MzrKYnG/W11VzRcX2C5EWWcgLtgIFcm0aYb4hKIsbFM1/sWCgHha9fi+pAD9N2S4RDLZJPkm5QAH+Q5yacE9TQ9XyvNyEytrd943IGPHQ7yQFvmZL5EIkkpezOKQBwgoEVVImQB2i2D8k2u03yKHIIxFJbmdpszUUVm7sae+aMiTLuaVy9+0zHMOX/YYEwjs2m1BuYqQnaEr6jUGwzghJ6BEVCi6X2/94stUCFLl39YFt9y/Bv3G8knKrxer8H1kKl0BF/qsKg90MK/wqLFIzGYYs09SuZiNofXPzaYRfZRfflCIYc/5kMKXep4giL0vyExCA7TJkslSav6atuXl0Tk7y1iyjv7TT7yjmKDaZNxvejWihiEyEn1aBUhkJo7MBJO4wCtxnBla6d/+mewbM1af7o4/BWTXl1IjhsEOg3B+3HXnhkh9oS4yYcf/5smQbKyvqGqNReQYC5juOTB4CoHCHxWTKDoltSxm+5/VgKDhcgeawFmG+ZlgeGAzkcgqGtpGMSoY1eAnHcgSS0XfhEPAxrOOyw4ebbh9RXPQOTSuvA8JtCYZDpAKdl/f0+C8vLsw95HY1vzEyc8f6trYM1iML85zJWb8JhERRg/AtVZURxxiuQTIzwZwg3OgNNMHybWXvZI5Z9mxIVG5LdqZXIRSYU/Pd4q+LS+9NYVDmVSybMM8XdtUyDPORGAojgTNcx1DsVJ6VfyWBVt/+L9d8O2z6Y6mKyMxWNek+ltb2GLTQe4pGiiqbkd3W458LCREkp5inteyYs9VZco+DQfZ9rr7O9Mwscn3Njg0LsfyGltz5G2PC0GdkmXmL4blDCMIAVjCCAd8SkpRAoo24RpM7tlXsfrr1dJ/VD9U7JTjPmjWHCxGZv5IRaQ8piqqqGGWxExgiFNifAkNHXYyKUaszPucIu4DFjLWxgaNm1mOnocNqf67Lgfqx3Jc4d7eiIoBTeA7k6dCiUIzTiehcNQU03QyuAYZisPeZRjO0JsvKTJIgbnB1dwNnRvoqTdWaBEF4vLWhweBIT39NktQNgsC+0tXRMyLJ6fxWkiP38wz/UMxbOwbODqt5X8uRI3ZzUvK6wP6Vi5KnLt8VDAQmJCYk9gRkaZiRIh/o7uqZm5GV2RUKy+NZhri/p6fndpbjgNliXgAgPABImuRobFHALlgq1DQSURRJ4BOwQP+hVvhO9H8HH9mlG6yxB/jgM6lwJU0382t62vDj835Qeh5xur9ffQj8f39ucURBgsYj4RRpgAZSBKc4pQHFyBRBIZrU6BpO651Y+e1Db5xsYRWNuWsNweXeWb2vVigaUTyHNSsHZUhOQ9A0t6a8JqWwoGArgt5VFOuqQ4gmEHCuaGlz/TYzLfVbjkWzkSLe3d3X84esvKKlFAU/cbk74ZHdCw7kjlpcQHDcWTxl+cgXBOmcwGz0hT1n8ywc2ravrK7krFvHlu94fl/h5DUzJWT81OPqBhazYWbrviWfD52y4auG9pbz0lMt57fsKPtqxFnzhlXs2FCdOv6B+4K99Kr0ZPMSI6p6aACck4vFvBbXh15v9yyTVZrfvGvNo8WlT5k0kt8nKt6hNBG+uOG7pZ/mjZ89JSk56ZCGhNTeXuKwPdG2TSCDt4qiW1+KJktKjsfPrON5YYQqdv5Z8zW+W15+rCnweFmOmFZ2iS+YkNV6qPrJ0ZOG/0tVm/9VsevhE8D57Jnrr4V88niWpZLkEPhU9INMCJjb9ldX5Q4tTHfzlPtuQGk7VJTYrqmmv3hd7rU0QTYJWUSR0k4O1xhisdvrvzI12VENNeV2Emo3t7e33OjMSl4JKOWb5m2LvykpXZeuAeNMBLg/Vm3+05SiGS+NBBr5enNLY0lGVtKlLE0c5gHtxfnYBWT4c3Vl1Yr09PSXaUQvUTXTC20d9RcNLRC6Zbn3Xt5iqMSeIGFJyOjsDX6Qkur4OsVh+YOnt1Gu2lzWlT956dkMYx6hKGwd6CU3a0b+3o62Iyuyc5iKmj2rR+aUrCvkBethQMuViuSencyA8r5g74gjh576rmDS/GmcIbGYIAx1pEpGAGmp0pAymaM40Nba84k9KUGNaOKFnoAvbLHYHu9orZ+YmU5/bRa0xwHi6lTEDDcaUwlVo9+SgmHAsmilz0iuNCuh64181u8ISM8ASt9NNOnfr6o+RHACFQyZ57m9oT/mZDiX+LxHDu/buv6kvhj4OQ+bdN+dNJexvKmxwzIkzbaYJMQPQmEJSgzdygBhfigsLbfwwh6atMyq3Xtb3+hpr/p6PU0WaxI/l+eNn/aF/C6eTqTCIfHx9ubW60YNz14oRBo2bt/+WL/B9/R+8rNHz7MRIKumu7vTkWgKfNR25JlLj285vLQsX5Tt0xtrO/82rCjnc5LsepRjmZ0RRRhLQbPP1Rfcm5aRDHZ/WUONONeQo4bNFS6Xi09LtywCqK/24LfL38N9jpt11wUkbWpXg9o4TTZ5VdVeXFffsSYx0QZS0viXObbjSV84FIBE1hAAEp6rO1KXN6wo+08kcPdFxGB+WlLOXZIYaZc133xC9vSyZg54glICpTpWIoI9FzHa+WLYHyRpwy0ed/DmIZmZ1bIs3sFCUOVVe2c6k9JfVsTIJk1TVshaoJtjAXD7wzaBS3ooFJam2+ymGVpEPEDShgeb6tvvSnOmb+WI8N203OQrL3+mJmfYk1kyY/t7RAlNdSaaR1Rtva7SMrws0QwM37v6WoblZbHrK3c9isGZKBi76LesLUtGmrmNJ8hGDRAmTYW+oCi929PVWJqdZXtUJbrLarau/4/i9k8Jzldd9ajQEdauEyOKXdQ0iUCkHlmLqWIVkkjBUKyDJeaUo0osPi2J6n+tc6sUACQG7h9w/BogZPWjEQcVDMj6WYbHvj9wCFMM1PGpT2Q0/zRFIkKRFMhz3KcEw07hOfbVhtpaOjU9Y7WiqY2CIDzR2tAgYHCGUN1A0ycB53AgB1ActBm4fV1t7XbeIKyLVD68KOOctbvbjhwZP6SgoBeJYpFKUmU93d1zMrOGdAbCygSeIe/p7Omex/M8sBiNI3jG3B7RwpdrSCNJgFP0aDieK7qvwPf8U5zh+uV8rJwGvern2qNdUjrnjEPHBjj4aGrxwUIGFMEjiiEIVQ0QqiJRFpO1igx1jqz4dv1rJwXncfPXCJaCO/fvKBeKiormEkaqWkNwAkNb7mlpbEtMTkr+oya5m5orF+retmnDV7+haMI1aUnJ2xCEt6ma/yZFkefTnFFiGOo2EwcP+v29nRU7l+hZUnLHrbXSlC2bZtmNPa6O6UYrKia0Tk/T7qd13nfopFXnQ8L2hc/fA8xm/sLGnYu+LJr29KbG9qZzHA7qwtada/sducrInOmGRc3VfavyM1OWQGfjI3WfbpSSi8tMwx1nR1rDDe/39TVf7HQo82t3rHm0cOrGNJa3bA0rfdkE8s2s27Jc90AfW7pmJiBMi4NhOIOm1Buqts1/PSafMeeVFSMyY4rXI71gNRJvWjn3M999cf93J5Nf/viyywRj/rjK8vJlRYWp/5TFqo/qDr5wgsynzFx1jcmSNUVStTGKRDwlh9khkYj2p4r9e4aOmDp6CQXb9h78Bm9Mnr6Yok3W3u6uvycnJjdGVDCFAUpKQJIXRiTlGrstYQcMKZfTnPYnUQqs4G1Cq0obC2gQSEKSyptM5tUURWwSQ5HdGiIura/tLMvLy91DkOh3NVv/WDtu+vMpjJEtdLtazzEa+FuDvtAeJULModi0vzS31t8zJAPNaTy0fuCY0eJpyydBwrQtIkGSoYlVZjPxciTgN9Gs0Fe+eWFb9uTVZ8uyfbeZIu9qaahcmZfDV1TsXjuyaOIjBWIY1RhN9GGW8d9yYMuyrTE5jpp+10SSSS6EkG3kRbY8wpApiGdHKrJ6XWez+4q0zAyXN+haTjHsNprh5xBa4EaB6l1euXXNA7E+hk1dOc/AJz1GIxqExNC9tI2sE0XVKIeE11MSrA8zoHvPd1/MG3C6G3fu6j+zfOq9JsFkD3lbHvRq9c9jOuTHnu2YqbPT2nq4Z11eeOnoMWMfDAa636zdfs9AOJhzxH2LDZx1tUCZ9kc0+hwTJcyuOFy+snjUkN0mO/vbvk6Pwe40uAJ+lKrI8GKeIu+QQq7vZUvb739q0hRb9k02k7Wkxuty6+Dccvjx48C5jBx6FnduWE74kCN5PtHGPKipbR/t37xwT9HEsgKGM54NCMOtNCeY/EH/Gr8vZO1t8TxRMnbEAah1P1mxdeEP5t8fdVbZFRA6hlbVtK8tKMyrAWTf36p3LNBpssKz1/1BVe1/bGvpnJYxJHVp/bZbVo6f+fRf+1p9N6fYLb/h+ZC8+YsFA/kSssc+sCDBmrOOYMnPJVl5QQrJF6mS9keB46spjrmG5DgDQspfujvrf5eZZj2HRGLHrk331caeT8bYJder0Ph6QpLzC4oAS7o6O18J+fzF2c6ckdU59mrw9m91gEnLWzKEEIb+QwNoGsNTI1tz+GrzoTobp4LvQsHO4uJ887q9369ehOsWT193XphybDUAYDNRVsUn+4soIFzkdrtv8nq604qLnI8zsPvhnZuP+nSc7Lfgxz47JTjnjrvV6hMNXp8UBqoOv3Q0WyQ2nWJnI+xqrXPLmFMeOA/x2LMqdCet/hzaJ8wkdmzicRFBMRwZHEZ0XEiRPh7GZazMY6DDbWgaJDuTV5OAbmJY+qm2pibmGHBubBQcaWk6ODMM92pne/fwH9ScxXA2IGmUZDbu6+josAuCYV3o4OpFQ85dv8fl6htnMpl6WQiLIMmUdXV36uAcjIjjOYZb0NnVdSd2hDBYzWOQrBV5fJ43NOzloB/iodv29Zzf2MxAUKdIQnKKpxo9LOS40n9u8+Ac3dFhjz7uAZO6LAPAYk06AgDUQFF+cSepdj1RtfmhtScbumDUXWsoQ9a86r2VfPHIkrmU2VgtKeoEjuUXed0ei4HjJpCEL6F650I99jln/Iq3fQHiytRk+zaCoP8cCnQX2uwJ0wKBwHVedyBJoAVgNlkPsILwz7Dqf5XQlFSNoMKayj4vK8rUBANZHPQf8TRVRcF52KR15yvI+kVHTz1wOpMvbNx575dZo57Y1OPrO8fpoGc27XqgP6yrjCyanrqo4XDzqqKCrCV+pvPRps1lEawhV4HeyHA1//2WxtqLU9O1+bW7VungbOQStobC7mxAhGbVbF/82bjJi4uAzLUoTEIIQtbFG9Vf7flmzgBo4PlMvOjZ8Rqwvs+TKD3kPfLbA98/8PbJ5Df+vMev8XoNl9TVVF8/dJjzCY5t/rZi69MnaGXTL1t1Dck4Z9CAuyAYkO4XQyADEeSdde3tGVmZiZfxTB888NUDH4/4n+cu1jTO3tvZ+YqB5xsYyE/WSJgmE3BRKCRdneEcslv0+36nQSmP5tDyLrdrfJLDdpHVwu/1e91jUpypb3g9nhsPfz//o8KzHn2mo913e0bqkJ0ARt5kGMhIolRqMhGQIFxbIOv9bN+mZ3Sv79yxq5/1+YK3mXnfTU2VT72C3ystLaXdwZIiBZj+iDTrdWIEOTUpAhKTk2oJmnmW5ti2AHR9gw9E0yC83dPXviLdaag8tGfNiMKSdYUEaz1MkHINoLtvrd626phNTvGUtb8yGlOCmiQuRQSRG9HkzlBYJgJuaUJqeqbLH/YtZwT+AElSf+Yp6RpCaXqwYtvastizKDxr5VyrJXUDVEhCgmghYQANFMVc7eoKXjk8P/Uaf+9usHXTqgFwnnDBsusNprzzmur6/pCbZb8SROrEb75c+cmPPdvhE+edKyqORQ1NbeePnTh5BpJkcf/mmwe8fIeMWrFUlcjlSebkfbLfU0qaE95qaK6bVTA0t5LhyaUQiuOgFs4Qw35aYMAujoKbdm9dV/nv/LhjzTmipdUE/EGHgen9qLfuWM157OQ78kVYSLR2hWpNPA+K8tMXRSLtXS534wyeQykyRIdMFttHkkw4KCahQhRN19burymbOGXsZ7Jc/+SBLQ/8YLa6kkkLrgRaRkFdffeqceNHfkLSXe9/++k83dlxZOmDtyHgvKm6svGsocPy79Gg8h5NKt8wGmuym9kpwUDV8N1bHxn4HowsXXl9RDbdTjLCZKDSw6WIdIWru3f10Oys6ghE1wVEaZjJaHyKpyNBUnFNI6ge+57vHt0fk1fBpIXTIJ30BMubighAXBH0hp5jEZUpqIoJgJCxvDzKpQ+bsjJL1hyvu3rD0zIzM0eWg/LD5i7WymvEFgR9w2wG/9q6Q0/rYXeFU9eliaopVzAKV2pKYJaRN7KSSNRERHVie0djQna2bQNJuh+q2br+P3IMOyU4jy4tswUVzhPQIkDW+cpoYgvsSEQT/YdYHLNyjoJFLAHIsQvrWDCJOkRhXkk3eg9cYw5TOFM0PqhhwIFKp2nx+FEeGxvPZU3WOWZJkvQkI05nShmEsI2mqadbGhrY0wDn7yQ5suQYs3Y/OOucc1OT3WizrQ8dXLNwyDlr97bW1Y3NKirq04LBQkAyZZ1dnXOGZEfBmaGYBT29vXfyBgFYjZaxGgkKvB73m5IYiXLQNA1omgZI1fTsYRp2wO4/BOR4AD2dL+TxnPOxB13gA0di8h58SlXUGUx3BSAIQDOAUJQIUOQISHembEWRtn9VfvPISR3CiicvXkNS6XdWbDsgjBg/fq7EktWapk4QGG5RJBS2ABJOZUi/6XB/KFLhlAf+2dOrXpXicG43CNyCvV/d9n3upPsvohhVDgVC/5PAp48hkHlGfWMbn5GdeoSGgbOr9y7pHDb9ha0ej38KIYWLM9I1z+7NZTo4jz57w/l9PuqLsOgBRp65sPXg4i/GzHh+U0VD47lZOdaZdVsWDYBz1ljz4u6OnpX5eelLKrbOXYPvO8Y550/I/aCvu/GSFKd0z+Hdqx8ZM3VjmobMWyNyKJthQrMqty/4bFzp/CKByoEet1JjsCTWBCONN1XvPDZeeMJFT85QoOVvPE3khXtrry3fueLNkz2/kmlrrjUYCi/asXP778ZMyH1GDFduOrztyf9zfJvJlz54rWBIn04idlrYH1lNQDZDI+i5eyoqhuTkOX/DoS6pYsu6j0eUbrgkGKbtNEm9rKpqA62hs1grny7K6qLuzu6rM1PzdkOk3Rj0tGXabOYLahq75hcWFT2vKMG/Gzji9+GQt5PJUparbcR0hhJ+09bk/7MzySEn283rAqHOPeU77vtfh5wTy9CJq589crj2tvwc5ua6gyc6tJWMXTodEdxUMaSczfHmkrZOb5rBYgYJqZabq767/aVhEzbc39XZuNyRKFTXlK8rLhy/rpAgDIcZlqhRUeut1dvW6eCMnc0iwPYrn0hOb2tv/0tGurUckWidRKCtQOGzoMx8azQn+MNqaKmqoYNGo+nPQPFcTSmND1bt2jAAziVnr5zLsgmPShGA3SAXQopoZnju1oArdG5+btKFhFKV8MW7ywfAecplZdcIbO7kxgbP3Pzs1NtcXdva927b8KMpVIsnzD0P0VkLqg9VXVA6c+Y54T5/cNcgcB4+9fGlne3e5QVZBftagv7pApRfa29vuyI7MwcaBOJpmnR/rUJX/b4tD//HIW/YW1tjS2q7O/uSE43+j7sOP3kM5zx88h35UMnh61q9h0wsCzIz7J8JrPguyQTc275afsxazJlQNoPUEoqa6luemzZt/LaQ/8jGPVuW/eAan3pO2RWBgKWo7kjnqsKC7C9V1PrOoT1rn8fPsWjKPX/imLybGus7pqTnZNytAOlzEmm7DJTBZzOq48Khxsm7vn1YN5Xjkjdh0dXJqcN+7/YGzlMUOJ2jDTO7WtseLMjOrA6GxOtowVICSOKVSMBb4xDIySpbm7Pj6w37Yu3zJ94z2WTOWBUQw2dpGnktg/iH1JA61ABIu9Xqp2OObmnFczMlLelVhrSebTQaRw4xtR3e28VajST/vavnSNHwYdyaA1s23Jc/ZnUxY3KUhBXpjYgcBEk25jFJkl+s2xqpzhhjfdvn816RmWHZwHLdD+3/8mcGZ/wjxlKO38s0TFM1TDqTCNOgemgODnIiVQAHhUPFso1E4RNXwZX7ncKOzYWlf4wPksRKJEUghClUcsA8ruf7JGgSZxvrdzPDhmHcKBaKhLFH1XBKTkBS5GU+r+8sfAhHot2+jACo3WAwPttYX8+kp2esVjW1kReEJ5obG4XUtLTXlGM15xPB2evPAgIPdM65ocFutiWsDxxYtTBl+sp9fX19Y7Kysvp6fb5CC80+2NXZOTsjK+MEcLaZTWNUhIb4fP5/4Y1DUqL9PYamKmiGqUOqRrIUgyKK3L+OogdK4jJg6T4ab6X7Vh9j4O8PO4M4Uut45bmf18fHT1IDGcoG/MIx/UxEz+eKcvfY7kji0zMJjSUIqpJF3dkVXz9yUrN2wbiFa1g+686KXdXCuLMmzfWoriqapSbypGlxxC+ZWZaYGpFbTHV7V+rm5awx8/4ZiRivcjrSd6lQ3kiw4X2Vm+4bcHIZfs78Cynk8EVC9COtba1TcnNtGyq3lt2dO+mJLSFRnWozk0WS3O5r2v2QDs6jzl1/gT9s+bynuw8MSTbNPLxr3uf5oxd+3eoWzxmSb7mw7uvouLgMm7ZiSUtT58r0ISkPGKzKpwc+W7E7u/QlnpIpCwP5Lzs6Kkoy0/33Vmzf8PDU819Mi0iG7b6AN9Nok2Ye/Gbe52eVzstWtbR0hKwfIopMYDj3BTu/iFoEcMERDUzn+OtDEeo5E030Aalj9vav7x/4gfkBTANjpqy4EsLUUQfLD9w/fsbYtyW17v1DX63+x/F1z7360T9oSLhICkdYluLe8veF0hFpmtvS3ZPhTDH+hkdd0oEtD39cNG39JbyQktTc2PWS2WxqZE3qJDEYTkNAWhwKSlfnpBfskRT/nOqtc3dkFN8zlzcVPCxHKFCUlzHW5e5+S4XuNSHZuxmHVxWddd8DIS9XlpTo6BRMYPS2L/58QprEcePmFyE6hfXJwpw+T9stWemeW8q3Pjdg5pw0fX6xQJnh5s1lAybd0VOXnQ+1lCuaW3tvT0gxVFE0e6NAGS6pLN9dNnZ01uG93y8Zhn0OKM5YYzSaa2W57ZaqrQ/pHrKTSlee5XUbz2pudz2WlW8/pMGGdXW7N/694OzlEyiUKAQ90reWBJs/JIeWRrTIQWeC8y9IcV1Fay0P7vvuKDiPmLJgLmOwPwJVhuY440LAEEegis7z+yN/yR2SeJsSOeLb9MFRcJ7269V/IMjU692d4fMcduOdLKyr+vzjlT8aQz9i4p8vDobtv+3oDd04fuykVSyhvbP5k+sHUnTmTlq5LOiiHjSyhgOCI3V62N1ziyRLjzmSnM2pTvKyz/7PdSeAcunkW4s2b//pmdIwOIvU0CPdLT1JGQ7i47bKDceAMw6dCkScaZBI2IIUxOZmpz0JmJ6lm9+/65gDVq666iqqtnPCLLcn0u1x9e0qKMzxGA3Ew1D1vrz1y7IB7bC09A6TJlgzfS40CkJnQXNDZ9nw4qIvCarlne3flungXDBx/i0sM/Smlsa2qUNyMxfxPHo2qChfcAQ5kqXVqQY6OOS7z45uBIdOXHYba7DfCxEUwpJ0i0Cbzmttapo/rCD/sArFa0NhJYNhhBUM5LN4RpvEMl3Clk1lAzIcNmnFRRqkXmKMMBwMBGYTim2Bpzc4I8ORMtNiUHZv3363nro0dcz8LEAkvcJA89lGAz+ymm07nN7FWkWV/D7gaykqyJfXVm7/6+KcEQ+VhBT2oCvYA8aOK7hh979+r9Nb2aVlPBVO+rijo+PcvPzkxzmted3eLRs6f+i7f7rvnVJzxp6MHCgYpXDIIeGs2TJCFGL0s5NwFK5KYUjFIUv9NlOdJz5adIemQWUwxYrBRgccPYfIoKQhx7TB3kyxPmiM3kSUsYXYmE0rquLt2rL4u4xpaxf4Av61OEVnUlLSMgRRh8FoeKautvZEcE5Pf13RlMcGmbV/FJytPLuvt7fXztD0Q1LVwwuyz394X1N9/ZihRUV9osdTSFDs8s6uzr9kZA7pCojyeJ6j7u3q7tY1ZwzOCiQdgYD3cwzOyXb7rTTFfkoRlBNB2UCTpB8Qqv5FQDDKmyOoHn0mPAAgwgPARwAh47jnaCFIDRHk0dcne9gIxnJrx9pG2+E+KJWAIqUgjhZISiMYniaYoCp6jVrHueWbHjup5jdyWtk6FTpmV2+rNIw6a+Jcifcfoj5JHm4AACAASURBVFluMi0ZFntcXrPZzE6liHbTwW3R0KX8CfPe7O1jrs7NzqviOHSxxkFNVfpKI2rL/uovXqzAdSZe9Oh4mymzZMvWLS8OyTQ+Vbt99ezsiRu/8wXk6WkO80Secdfu/WqRHktcNGXNBTKR8HlPpwtkpdlmVX7/l8/Gly75+sCRvnOyhqZfW7/56K4+b0LZ/R3tfSuGFuatIYjQUzJUEwjNaQDQNKaj2/cshC6QnwcX7vvywfXYrG2grdsjkpZJ0t7rKr+/S3eMG1/6WGkoxF4ekoN3pqTyj5KgceOOzzY04R8utzrtqpBqyW1r71iVaAbPWJnApi1frT1BCx78nM75n2UXekOWRI1P+DtBQ5EiPS8kGZS/hnsD7d9/v9Zz6aVlSRLNpERI4U8ML0yAMPghjMA9/h5inNmSOnvnwcr0wsKUK3mqJ7Lrq9UfT77oyUskaElqafC/ZE9IbEJqYAJljqQocniZ1+e/KsGUvpdWvLOr992/Y/iUudf4/Rm3uftgaVqKc7PdJgRI1nNLDISLJs+7lgHpdx46UD1pzMTCFQnJ/Gdfv3PnQDKQ0gsWF4maySOFSEElUhdWHd5ze1GRenPV9mf1UDAsk0738CySteQj1t+25YOygU3YpNIXMlo7XK2JDmOFRsIrSGj5Y/2R6kVD8xJrDm1bVFRywYqcoFdtsJiT2mkq9Kc9XyzSM72VjFs11mge+lxV3ZHxKRmmDxOJpquxg9SYmY9d63PBkW2NXYsLhxW5ZRhagRi4hyeFu6DsvoKQWlcc2v30spjsR5UumQ1I02MUKdCSIi8UOPKQIqt2lrW9ZhDo7yjK8x6EoZc3v1/mnfLrexwApt0ZFun7TKy1HIq9K7ZtuueUGdpGT1+yQFIdCxSJNGen229Qpd4qIHsO48NLhk9/aGk4yC63GIWDISUyg0LEeFGKvN7X7U0tGZ01n2U79nz3r7IBUz6WNUeYfH5/n/enOoSljbvVQDHDWl19/sREPvRJW8X6E0KpikvLUvwe8spISN6YnJzU5Ewx3xDy93Ts3rS4AZSVkeM3B4sJwI3yCM53DP7IRIi0v7R3dl6dlz/0dbuFe5+O9NYgpPQZjcDdEiB/u/OzZTpYTTznhScOldfMGVVcuInnXW9v/nLRc/j9YROX3UwxQ/7QcKR+akFx0f2SJv3NH+ybQ2ja4pzMlDWy7CsHVOiTnZ+W+cdMLUtTSNOisCjPYQXyUZrlX5HDYG4oHL7ZZjHWUgy8FoGwM+QXJ0lB/oHMjNTFmtp9eNfm+97HYw2dcFeugc2+qamlbWl6tvHhqi1l9w4Z8cB9NBBWWU2JjQYDvAnALve2zWUVQ6aWpcmi6XXZL56TP2TIiN3f3FRpLlptt3LW772exqLMVN+aqp0v3Fc4buPS1s7wcmem1Z9TkF789auXtk+//ImJ3e3IHJbQe319feZhRWkbTTbPmi3vLvl5wRmbtQOqxYPDtGWkAgSx9koBCkZzPiMaJ7s4WnSX7UEllrbyeAAZML+SJ6TnPAFrBuekjrXD5lqoasCRlBgMR0JXIg2M8fl8a3D4lD0p+QFJFNt5gX+mtbn5R8GZ5fhXO1q7MOd8AjiH/OFMHGNuN1r3tzU02BMcjoc8e5YvyJ+1YV9dZeWYtJwcFynLBRTDrejo7LwjIzOj2x+Wx8XAmRN4kGAxjxFFKTksRb7QFBU4HCm3ERr4hjMwtVJY1M3aUbN0NENn1KUuStxH05QcvQ468uNofDhA/WlTY+0GRBcFYBzahnltfd80yKytDxc1a2OemSRJQj+jA2jAaPy/7J0HfBR1+v+/3+kz27ObbHbTNhUIkd4FRFGxtyvq2e48T4qIilRFCAoWBBtgu/P0RD3LFT09T0W6gPRe0ja7yaZuku07fb7/32wKYDlR8f7c6zKvF6+Q7Mx3Zp6Z2fc83+d5Pg/+Ba42f3ho7bfXOQ8f/uvMGMx9ABKZd1fsrwWFfYofIizKYQDxcwiRWxwNR6DZoE2g2HZ6z+ZOOBcMnPXXWMJwnclE12RlZl6V0JT7IQ5NFAEfCMVCI9I420EMZ/uFI8m5DIsXJYTALE3Fd6q464Hq44Hrc7PT17gzmT9i8bY2/QVMYO2u9gj/WTwaB3YTfq1vzwPvl42ctbquHZ+WluHcn26FvxGTSUWRrAQBTUODwfY/2JyWaqR2XGhzZvDxkHIpwJjBSVkbXl11ZEz/Pu6Fqiq9YzIzUUnhVh3Yf+xnZf2LPsXI4CwDTRfRsfhHMaKon6BJ72hqsp/dpD3FkeSrmkSOQDhe3xqPv48RopclIqu//PiRF//dC1P3Z6PPXzwpBmx9cMq0HKl83J1hmamE2/JMJuqv0ah8ncWRXhsR4zMxVv5XNOrdsePvyz8496KVD4kCe8/ew5X2UWPKbgTi8di2zx/955CLl1wpiGmuRh94yZmRFaTZyEgVT5S0tDZOVST56j6esuNysuU3e7fen5LvzBv04O9jYeaOSKgD9D+n9FeqKu06sv2uHh3xsvGPXKep3GJZlsucTufjCEn/tBrYcCgeAnIyOZ5iVGzrvxasKhm18jW/13tbVqY0zXtwdUryVYdzY/zcqbxEziEN+G+jQnuTzUCBZEI0A4n7ZSKh3YOTsPz4tvsX5w1e9UhTQ2BBgSejzuA09Au3NI2CBP1iJCIVOx22P5hp8VkgAYCRmecE2xODa5t8s0v7Fx8jYOIRvamLBmgxGIz9IdgYtBYXF0oyLi4iKVir8dodGEpcSGotS3dvW75AP66hE+53AOSYIQPmIVXDAEmgp60W9LAUi12C0a5L20LhW4sKs1+Q5UiQoNB7ggxuBLhtQntbaIyVIWczIHzokw9mfadEbd8Rv7kC0/oNUJFlabrZXM8Z0YyEWkshCI6GouYZgUDT7wrzHVX7188s0Y+rbMJj12PI+GgkGi3IK3DfC5C4TxFjHXrWO65Ql2GapGRYQ6vee6+8e5rtdG4v4B40c4wEc9Z3tEboDKO8wUJ23FtxuDNXoHspGz8zR1CtZpHHZlI0dzvLsV/SJP4e1LDPMJAYyjHEVkmOXYdpMCiLYG2E15wIpxaGIuJVeVmZa7Mc9PxQR3A8YM0qL4uMIvPuZDT+igasd1Yeq5k+fOA5mxGqe2v35odTcC4Zvvh3Vmv/3+3csWX40JFDZ2macoDn49k0h1+oiPwNJENOAbJGcwbTpkgoej1NctfJmkBjVPJeWVBq4zw7NxJO3lJQ5GlUQfSWg5/dvb5ozL0/N3Oe3ybjaKLDar9JkKO4pEYO48A4Nhkj5lAUyQtqcE5ClTdAJTmSorgLJAFfYLPYdnIAPBKRpOaYRtlkFTzaHvANGzTgnCvFmFJfFw41UADfG+6oySnrgz99YOuzM4sGPjOJV6n3w/EmZvDg4ulQjm5PxoWkKFteamoMjY8mkqBvH9erBBlcvG/9gh+lWf6dnrMO50AMD0WEENCrqPRGDpjeNkoXrwAwldd0Ko2/ElPublb21UThr91eJzV46F63W5ykSwGsGzLdtcxIkYEnPxfwvPAzjMD6hsORpanp43THIkmUG+w26/NVFRWUKztrqaaovp5p7S7POQXnQGN/R4ZrkyjLDzIUvrytvT3V+CIRj+QAmoRpnHVfQ73fznLGJ/nDj8/NPv/xva2trYPsdns7zrIlOC+m4JyTl90SSUhDaQqb09LaOkOHs8FsGqzKSrrA858pkgzSHelTJFmsAwh8rMuIKrIMuC4dz05t8s5/3WDVf+q27pzw1rtSd7fs6kqCO6FN/g0Pa+eceKfY2okp85NX7MwJ0CvVcKDos+OqCIoKsiowuflPh9c9pcdmv3EZNf6O61Usl8Vo+8vJdpGkGHoFRkvPiyo2zkynPabwIpTV+C8gaDXt3vpoyvPpP+z+ty1pxT8XhPAuimYeAxiRIavYfJyg3BgOt1IYFpBl6UpZESuSUnS1qkb/oZci9Bn35NUYxs2TBGGU1Uj/nQFSAqOoquYY/ykk8Y+gqjhoKF11cNOCD4eOue9ikchYJCrYGAOJfWY323hJova2t0WOGYymW1vaWq5wZlsVQYxtYknqFVlWqpIaVUDS5DtAjC84fEHssdJ3AaFYiMtNlvRVsphwW03YvwAGCEUhPw+zwWdQ0DLexDDXcxS6kcKxPUDFdRW2YQkl8Z6kBDfs+uSRf6us9lWDjr38sQtjCh21Ga2/gKp6vYkEWTRB6l2+Q4IkbJAI8V1J61A2v1eeivmOvXBxOU1mXt0RlwaRlHqlgWjCN3z6xAfnXbHkylictXBM/vPxGF+rotAURIgBmgaL+IRwm4E0bVaVlgf3bl2agnPf4ffOYpnsW2PRWAFnMt7IEvS+HSd13RlwwbwLSGAhFBlNsloct3Mcx4uCuEVRZQNFy5cHw1W3H1if9qdB49gXcQL/naY0Td23ZUXnS0l5OTZkkzqYYNP/CHG6L83SXybjLQ1Gjukbi/I2RdQe1pBUk0gwB0wm5m5NQY9gUNkFFHH6ge0LdhaNeuCONFv2aiQjgsXV93WBh0iMX4PhdDwpx+6AOLzeZjS30Qx7KJaIR5NJ6X0S0FeTFH5BjA8tIHB1K8ewCywcOToSPPbKl9ueT8F52KipVwHSTlEG+59UBac4Gt2lSYHQprVPvjd+0tJf4rTRg+P4XJPZCABUd4uSPCEhoBYCJxYnog3+Lz8tP21J2AGj5l5JY65MDOLzGBbLpw1ys6CKcVk1OBOJhJmikztVJTqHYpR9okSNRCpLk5TxGgIz3Gyzp7VAiI7wPM/KvDQBQ+KkRlC7Sa8yOC0qd4mqRBWTgcfTvsAx0gKFlr0m2P7Avn0vfU2CUu+UhbMWT5JXL7aYM26wWtLKVAl9rojxGAH5yw1G+FF7e/PLX657/PORE5cOUBCZ4CVyotVi/i2NCSNsFjMK8ZKKk1iyo63pZQzDP4snlQE4JJZbWe4NWWndunN95wtr6YgHp3CG3AkAidcjAs1QNaVZU2VBVoSgqqo32az2n9MU45MEzUfgcKIsi3sVKfaUhCfaD214fE/egAdWZ7o9N0AIfUmxbfbB9fPXD7pw6uWqZI4Blfu50WC/iSSYA7Iar9c0cLWcwDYIUvJlCRe2Vu8oj+rHUDy2/EJNYbMokvsFEuUykmZb2xOqGScoV2ug1pyd6ToMSXAu4klGAIlPrGZUrMo1q47veHF+6fClg2KCNthsJp8zGAkjhqR3aJI7p71NelUFJI/jxJMmI/ZJMlH90IGtT/+gRL7ua3xacA5T9tUaFO2SKouyrOlgTk0t6z4vQBogv0EpIyUPqXuDuvf3LSpZ+kGkAs5d+UmahuttnFKJXilfD6r6OwDEUwPoXZ4AUmVNj3qbSJIc2draas7KzZKSfPwXCCP6xxLxR/WYsyM9fZGqaA0Gllvtq66hXW73Ug1JtSxrfM7nq+WcLtcboiY8xdCGNc31jf3tTtcmSUo+SFHM8o4UnG0gEY+l4Gw32PYF/H67yZa2PLa3fE7uxBV76+p8gzyevA4lnijGKWZJQ0PDVE9hTosQjQzVKPOcYFtwxv95BsButQ7mkZIej8Y/UyUNZGa6JsuycBggbWtrSztwu91+SY5tJXC8EYDOrG2cIKEsSbqsJsT12mhN1wlPpXd3edVU17UTAdY14//Vi9jlIwMM08ms2xNBDOFQ7x6JuqVN9cuDASSjVG4aJEkCYwiCUZKJnQxsRUfWL/+alGT3TTNq/K+vg4QpgHAjSQICyDyvaAStQqjmAUlroGkOk2VWwbAwvXXTY6mY4ZBRk6+jSUtAP01a47xJJIwjSWOTDKBdFflcjAIcjisBRUnUKlqscv/G11LT/cMn3n2hpmExBIiBmAYMAMKohsNKWcOTEECCwWRMVmMyFkMH9PrlkRNmjlI1UKqost1iMESSvFSza8tT68ac99BwDeJD9XYjMuQPUzCJtq5bueXcix4cpqkKJSFVZXGC/eLzxzeW/qKcMkfEwTjEhgNFNiEImiEAxzCcsLebqbX2qDyIACgd4LAPRUAoSVKtBqQmSCrOjR+uSk2pfZ/l/KvnTsJULMrqGmA4QSWTPE7RpAqgkkzyHbb1H63sab5x/qQpvzRw6fV8UiEoAy0rUsK89qMnPxs/adYvNcT6CYwmIcT0JGEJYmKDKCijGZYO6C+CGAKJbRuXp0IIw86dfikk6DYGZ2CsI1G5f/8zp8QZu4//4qseuEiWUVJTwQAcx82KLAYBJlXLSlzYvv6VnWPOu3e0Ppmmaglp16bfd3fsgedeNHmoChkcaCZWVWEpQeKcLEsdGhKOAlwm965buWXExLvsFG7y6OcCVRURNG7+cuPyz0frbRUp1IeCxEg9OQIi5FURhAINPqNFXY2JLMIwmAcBrCNI6JUkTFcNhkjSoIYruVDTjmCkZsRRAmoglr1tw597QgznXvC7S00WR1iMExhJI9dnHy3pmaa+5OoZ19Ik3SZLWn9IkemyJDVgNFkpRJPMxk9XnjaYu203bsL0ayicaUGIYGVcgrrmAI5jurKxhBOqSkjykY0nlWVNmHT3hTjBiKKg9YM0bhd4oYaEWBuAUoxSM/bp0+Kne18NHXonhwimn0IaCE0SVAxFLQd3vfJv+62PuXhKhiYb8zGMzMEBKJAUKc4ymhdBKSJJfOb29X9M5VGMPX/mQJw2UIAABIMjg257/dsJqTChICUbKGqbDNU4kCGB6drLUHZv3bAylYE9fOy0KwHONhM4IgmSUCQt4dixdnUq+330xHuvQRrRpKjaIBwgI05ifoSkOgBksH39i6nmHEPHTb1GFwPCMRLDCUzdunZZz8vGuAvvvRxANixL2gCCwFhJ4r2SKjUAiqrav7Hz/h48cX4pAcyCwZIjdcTDWYrYQekVPrEYxskCUUhBckadt6ZPYUHuypoDs2aUjn5wBEHLGKXy2u4tK1PHcM6QqUNZI27RkDaQohhVVZW9JKRkHCM0QZVwRYkjCCR29xevbTzd6/VN650WnOOsy45DyZaQEqKsqIgkWEjiBAYkGUhABiTCYHfM9NsORo9xfvNn3ZXOJEj9T5+46eIP0lTYU2iENCjJANAM1qGIdBQiaXljc+Nv8ovyUUyKX4OhTjjzogDsdkc5UlGA47jV/spq2pWVdQLOtV4uw+1+Q9KEp2iKe72loanMluHapOhwJpkVHV2NLxIJIZulAMYZ7HsDfr/DZLMuj+2Fc3MnGvfU1dUO8ng8HbIml+AyvqSxMTDFU5jdEopGh9KUaW6wreNunESdcNakjHgs+akiIOB0Oe+UtMQWTIHHgi0h4Ha7nqSg9ryk6ZpmmpWkGSGRTIgMbYK0JkMAGIAoQlcbOek60T1wBkCXBdYD050LxHVt7pP/0v3JiXV61sUUpM8KihKJNAJhHMGQkiqSDIDNmuCfdGTdE/825vxjbrrebXst0GuBXgv8/7DAqEnlFxKU/R4VWu+TNTFt90d3pICrK4eJSUhigHrI5626o6zM/QKC0d8f2PxIT1nWf/p4TwvOMcIeUhUh1SIyVUbVleur6r4zjnWLT33t2L+pf/HJK+lFUpoqpOqUYZfnmJL9TJGms9+w3tgiVXIkqUASJGC1pPmBhs0VRWF8oKlhmqcgD/AifzVCeP9YInoKnFmWXV1XVUM7Xe4lAMo+huGe8/t8nMOd+YYiqStojl7TA2dZfICmqKfa21pTXalScEYkZG2mfXrLSJPNvDy2F5+bN9G011/nHejxeEKyJheTKr4kEEjBuTUUlYewDDW3pbXta3CWeQ1kOp2TJSRuAYpytL01DFwu16NNuLCozJxen0zImQjBBEUDQZ8oEFPes/5q0jk9DaEMldRURBecoajPMCAMZ3SxtlNsrzeZTJmwqy1nN7u/eoH06nNN1RBNYLrrgUlJns52uNcnw8fWH9jw2FP/6Zuxd3+9Fui1QK8FfkoLFA+859VYnPp1bk7ZOnde9uTWVl8hryQ7RBkLUIjL4aOxTwlCMkti87lVB5fv+CmP5bvGPi0410VgSBKSqYooHBIp7WqkKanGDnoQpLO3hV7z3KkV3Vn0010H9O0/IabjXfeXO2OiqWIfHf49Ep8akAQxVResq4MKCQHk5RcAAqfvVBRlYHNzy13ZOW7AK+I1UMP6R2KRpSnP2ZG+CClaA8Mwq+t1OLuzlmhIqeU4dqW/tpZzuN1rFFl5imKpNa2NzZ2e80lwTktLA8mkmM0yJGSZLjhbLStiRWVz8zrq95wMZ1olltQF6k/AmabntQSD01Oec7p1MK9KGfFQ8lMpqYKMzMzJqihuAVgnnN2urGUEhf2Jj8aPhDoSQBEEwJpJoCc8IYQDg9EIZFEBCFMAgF0zDFo3nOWU3dVUNPokDdCuK/5Vwc+Tb4SelyagARwpQFcSTfWY1hAozMr3ISnw8uEty7415vxdN1Xv570W6LVArwXORgsMGHHvHRznHKgh0/UYTgY0lNxgtZqa2ptDfRmOnagqcquqRN7DyOgXuen1u977AQ1HztR5nxacw9D6oiLJJoCQPtfalVWsAgUCqM9ud85X66VA3YlHqZ8p6U298OokYeyuLkwq1Kt5Nah1qYl0KWKkdCb19G2A6aVauvesK1BDHNgVRRnV2NCEefILEpoG7lIEaXhzc+tdBYUekJSFayAA/SORyNKkoCeEZSxCqhqgKWZ1oNrLnAJnXw3ncGWtURRpBcWwb+hwtme6Nkmi+ABLU08Hg60jdDjzQjyLoTjsO+GsEUvr6usn656zEJWHQIaZ39zaete3wllKboYYONYWjIBsV/YyiiL+oCmoss7fAPI8ue0I8v+UJCmKIQqm6r6Rpmm69mlPOVnXRH8qDq8n6Om/d5ZhnTIr0R3o14XcEA5xvTa862963DnVL1Kf+EACQlCDSA9LSyptoky7NDEgHtny7THnM3Xz9Y7Ta4FeC/Ra4D9tgZHjJ18GAWsTNThYlZJ58XiMSLNmxBRFPo6gvPnAjpe/+E8f0zft77TgLJhyBxIQ2kVBkCRZb5BMAIArQFXFFDNwvLsv5Km70Bs8pFzery49/ZYxqKSgc6KWWW/KgGMkRLheTKThIi94NajgOAGerffWjssrKhIgxKeqChre0tI6LTfbDURJvFaDqLQbzhnOjEWq/I1wfs7vqzHocFZVdTlJU2+eAmeGfDrYGuyBs+45M5R1f0NdwGGxWlZEisrmejoCe3x1NQM9ntyQrKnFtEYurauv0+EcFGR5MEQn4JzmSBuiaEp6OBT9tGdaW0puxnCYgnNWVs4TsiS8bDZZq1ua2yBFkW+37Zj3K/eEcjtJWNIRAmJS6u5uerIROcBqUue141JdkAGGdcabuxcoUid+5wBg1c56Z43u2k7fRqQQxCNIJVjMSKuEKGMklhSbZanpimMbn+pRSTobbtTeY+i1QK8Fei3wv2SB74bzNeXWsOTYo0mQEUVR1RGQyvrVy5yQAigNAt037kol7rZdDxhSPQpPYkZqRT1o3ekXAwQI3f9ONWPCAMT0mlsi9YMgIIQ2SUr+XpT4FZyRWlZ9/NhVuUWFIkJgqobwYQ31gWlFBZ4UnAEG+ofC4SW659wNZ4okVzfU+hin271EUzV9Wvs5v99rcGS616hIepKiuLf0mHOa071ZloT5DEM+09YaHK53UuGFZNYJONc5zGlpT0VNcK4HN+/21+sx59ywKCWLWdywxO/vhDMv8kMI3Di/sbl1mu45d8M5Eo6lprVTMeeTPefs3CcwCF7GCLzKV1WLeYo9r/o+vef23EmPvc2QtkuisWSYpJCYChzo+ZCpVpBE59S/XsqWqmNWvqHppO4Ud1/aVLZ8ym3WbZsS7Oz6SL8yiqqHJyCEOMIEPkFkZdg2xjpqdh/7/Kln/pcehN5z7bVArwV6LXA2WeA74eyZUG5tiYghPpQEAKMAIPXGFxIASAaAwACQ9QYOP+KUulpVdalRdg2kxz/JVM1vfn7eXknh7zOYyDnHK49dXlhcICJITNVUfLjfXze1qCAXCIpwLUDfCOfnG2p9dCecVS/HcStTcHa53lA1edkJODs3y5I8n2GpZ9pamod3Tmv3wPmA3s+5B86UcY/f5xtwAs7GpX6//87vDWc95pyV9YSKKy+TBFndFgxDi83wJpls/R3hcPp9h+rTAckCoM9OpCa4u95xkB6X1wHdFZhPfXZKOOErv+uNSfRr1FUbndquG/T6ixKtl1oBgCQA5AQYOnJIWIj7Vhz5bMWSH3FVezfttUCvBXot0GuBH2GB74TzoGvKrUnB9qkmYWZFRbKM9N4UiqZhetRSQXpkuVsVDKFOtZBu+alUA2OkpVSsvrZACAmgQQOBQSQJkGJpwPOihkFSVmVkkmSyX3t7CGRlZW2hGWouJPkFVVUVlxX2KZGQhk8FGjnMX+ef6snPBipUr1UltX8oGl4iSDJIs6ct0kupGJp+vr7GezKcV/n9Xq4bzjTN/rm5vql/msu9BajqPJLCng22tAyz2Ww9cDaw9gN1NTX2NGfG0x0cmlNAm/d4vTUpOEsyX8zip8KZIszzA03NJzxnVcqIRBKf6NPazoyMybIibgJAPZ6KOWdnPyFL0ssGC1XVEGjCnM60N+sk6dd5HNznPx4qM5jswGyhdpMkliQgpHXZFyLlJxMAqARQcA3IUAIqTM1ndLaCPrk/J57q36mnjEEEcYjpTYUgoSfupeqfMd3aKplSWsMYCJHCMyShfgbklppDny/vaf/3I+6v3k17LdBrgV4L9FrgB1jgO+FcOmGaEeLmsVAjOFlBqppycXVVbb1Fo4YU9JV4c6pzI4aUr8h4pqaz1RNinghHEEcQ4ooIrSYjaGppAhRNIxLjNEBw6QCZJ3trG0bm5OVvoRlsLiSVBVWVFZcV9SmRACSmIY0e5vP5pnjy3Sk4y7KSijmfDpwzXO43ZKQ+QVPU2zqcHW73F5oiziUo+rm2luahbt3pAQAAIABJREFUJ8PZyDkO+mtq0tIy0p/uUDPnFtgTe7y1Ved4PJ6IJPNFHGF61Ofz/c5TmN3Gi/xgkrA80NDUNLVnWvtkOKc7p8iqsPFkOGNQehknicramhrcnmF9s33r4zdnTrh/Z3uTMjzd7gqTuFqqwWixkWUpPcAvJpPIYrAAUVT16DyQdVHAry56CL/rutD/JxGFkJ6OrecG9Oifd/4OcKBGRWCxWlFE0MVzFIBDVSFAzLz9o6f/beOGH3Cv9W7Sa4FeC/RaoNcCp2mB74TzaY5zRlcrmzj7ehVZbq6parjC6crbTLP0vBScq45dVtynn4xUfCqCzLA6n39Kbn7mV+AsgjS7YxFUUYCi6Rfqa7zUiWltZpXf7+NOgbMu3+nK/kJTlLkURaxsbWkaosM5mZSzOY4FRoPhkL+6xpaW7nimQ3PNKUxP7vF6O+EsSsnvB2enc4okJjb1ZGtnZS+TZekli5GtbKgP4Jlu65qatQtu9Vw4/cu2Rm2kOz09LMH20b6Nq3o6+5xRQ/cO1muBXgv0WqDXAmelBc5KOJeMvv1WzuS5ef+B2ouy84o3ERw9jyS0hzrh3EdGgJwKNWaY7zvgTDPMC3XVNZTL7V6i6HXODLtSh7MzK+tNSVUeZ2j6nab6hlKHO2erJstzvhHOnOGw3+u1OjLsz7QprjmFGcm93pqqMo/HExUlrJAj4WO+Wt8d3Z4zTVofrG9snPKNnvNX4JyblbuMxsBLkqZUBFuaCZuNfr1h66O3FV1493bvsY5R/fuUxEWpcWzlFy8dOCvvnt6D6rVArwV6LdBrgZ/EAmclnAdfNOUWRXHcfLw6eLHT5dmEs8x8glQW1NQcv6yopEQG6OtwViW5fygWWSKIUo/nTDPMi3XVNaQrO3uJpvdzZuiVfn8t58zNflOSTsA53Z2zVUHiXIakV7Y0Ng4+xXPmDEf8Xq/Fnul4tj2C5hTmWfbocM7Pz48mMbnIrLGPemu8OpzbeREMokk6BWeM0EBmun2ILkLSHXN2OV1TRDnZM62tw1mUhZdYhj4ebGkizTb69abNS27LGT99ezxIj3I50qOaEhh7fPuqQz/J1e8dtNcCvRbotUCvBc5KC5yVcC4ZecstFFt405Gq5klZOYWbcJqdj5P8Am8KzkUygMRUqHDDfL7aKbn5WV0JYd8C56pq0pWTvVTP1mYYepXfX8u6cnLe0mT5MYyh322qa+iXkZW3DWjyHJzEU3DWs7UTCSmlEGYymo74a/3m9AzHc8GoNrsoz7qnpqZSh3MMw+RCXOUeq/HW/LYHzhS9oL6hcXIPnIGWEemIpBLCXG7XFCQkN0pdCWG5eZ5lQNNekpB6vLW5kczzZLxe+/G82wovnre9oUYY5bI7I7LaMC6wpxfOZ+XT03tQvRbotUCvBX4iC5yVcB583oxbZOC6+XhN8OKMrPzNJEPOg5SwwFdz6LKCkkI9YXwqpnLD/L66KXkeHc7o2q95zgjq2dov+iur/j2c6xv7ZbhzO+FM4KtamhoHdcM5zUZCkjAf9Xm9Jmdm5nP2sDJbyrPuramp7F9QUBCDUDoFzkkkD2aA8cHThXN2bt6TMqJeBKR2vMVfS6ZnWV8Pfv7Qbe6Js7c3++RR+Vk5YRIExh/f/HSv59z1AAwcefvFJO1gADABVcWBmpSApoW0wwee/egnekZ6h/0OC5QMnnqpwWQipaQCdIEiMRkCAMSlioN//qTXeP8ZC/Qb/rsLGcrGhWN64ieeStjFcX3fCuA4GgApCZJ8WKg+8KdUf/Xe5ey3wFkJ54FjZ9yi4Xk3Hzruv9hdULyZZLH5EJcf1OFcVFIoA00XIaGG1frqpxR4ck+BsyTqpVT2RUiHM0W/5K+qIrLycpcqstzjObtzct9SofQYhtHvNulwzsreDlR1NkERq5obmjrhHI/lpKVxgCDMx/xer9HpSl9pD6FZUp5lb01NTf+CAk8cQqmA1AyPV9VU3+4pzG3nRW0QQ9EL6hoCk/V2jplu+xBe7vKcBQW4Mt1Tkchv6PScQyDbk/9kDMgvMDhd0R7sIE0mYk1ow4Jbcy5bvL3+cHBUYXFBWEx6xwd6p7V7nqRRFyx9kBe5JaJIAxKjgcLHAUm0/6oN2/dB454Pk2f/I/fDjnDC6Dv7SiSRCyFEJESHNm58vvmHjXTmtyoacveVHJu9XFPoEr2cz8TCYDTsO+/w3meOnfm9nf6IF188K0NG5ChFVjGgqgBQSe+WdS8cPP0Rvv+apQN/NQICxRBpR18GAu/x33+E779F3qDJl5kNLkBR3M0YwUJZUjia5kQAgU3RBKTJilUSeRMBhboD25ZM+v576N3i/4cFzko4l42dcgsii246cjwwyZWftZkiiXkUBRdUVRy9rKRPgQRxfJogYUPrGhqm5uW6AdDUa2VV6x+NRpaIeszZ4ViEqTBAMvRL/upqwpWbs1TRZC9LM6vrfLWMOzv7LVWWHyMY5t2Gen1aO3s7gOpsEsNXNQZaBuldqTRVzmFZAFgy7Vh1VZUx0+1YmRZGs8RccwrORUUFcQDEAhIzPF5ZUXl7fkF+O8DVQQhRD9XV199JUATIsDuHSEDOaG/v+EQWRODOdk9FSWmDhLTjbW1tINeT96QI+BcogqsI+FtJd6bzjYZ1M29xTXr0y6bK5pG5HmdIE/znBba/3Os5AwAGnrfwfFHmrqgPxGcixQL4KA84igDp6co9voqFz/0UD1DZyPsvglpUOrTr95t+ivFPZ8wxY6aU4WxmkQoZxPPQoUoijSv8e/v2PRY8ne3/E+vkly38Q2Oz8ltIqCDHzVZB3ndv5bHXUn16/38sA8aUZxg46yUUZe7b1tEy32m3Pt3RUbV9//an3jvTx1M6cNpYnLSYEcExmoank7j2Uay9eiBLJr48cuS9jjO9v5PHyymbdjHBuIpbGjtW5eU6dpJkxweqKnhZIj2a5KU0DWqFOE1nR6LKHRxDhnE1+Mtju1ev/SmPqXfsM2OBsxbOKlV887EK/8WuvKzNFIvNYzB8QeXx45eVlJRIAMenCgoY5m+on+rpgrOqav3D3wFnhqJX1/t9jDs758+qLD2KM+S7jfXN/TKyXNuBCmaTFL66sT440O6wnQRnx/Hq6kpDptuxKi2k3d/tORcW5qfgTEDDE1WVlb/JLyjoALgyECHyobpA/Z0ESX4jnAGvrhc1uUKHc54ndzkAwvMApyoD/jYi05X1RsO6e29xTVq2o6kqMCKnICOEEtXnBba/1gtnvRn76KfYKIdti8fwQRR0fNFY3zo2GQ2BktK0NYJ87M/+fS/868w8Fp2jlI2a8UuDuSSUiNXlHt6+7JUzOfb3Geu8Sx68NhI1OKr8bS8nEyoYPHDA20AJv0/ItTt37lxV+33G+qnWLTxn8UO+gPowIGSQ5cL21h1cOvSn2td3jTtgwt3ZmJIzmjFk5+89eOAJI0eBwrysJQLvO3ho++NnHM5lQ2Zdi1EZfglxdwqiNpkklH9W7Z55RUnpL0ZUHn0v1S/4p1ocfe4bFouzu6wWi2ZgpenePQ+98NV9FY+cfBFCTiuB4/MJEH7k8PZeDYOf6nqcyXHPWjgjpvjmI8e64Exi81gKf7Di+PHLdTirOJwqK9gpcJY1VBqNhJd2e84phTCGTXnOzuyspRpQvSk4655zTu4JONc19cvIdn8rnDkq/XhVVcVJcDbvq6nxlhYW5icAEPPPBJwRQVU2+NoIpzv7zcbP77k5BefqhhE5+ekhlKjr9Zy77vg+Ixee3xFPrmeN9nfy0grvrvI3V3WEOiyODI4HREtu454VbWfi4Rg69EpOJnMmqpiZamiN/MViBX/z737hZ2di7B8yxsBRs68XkLOsrUNe0F5bC/oOLztopKRZOGzid2xccVZ00PGUlpeHY5ZFCTEEcrO1fTV7lwz5Ied6JrYZNG7u5bShIJJMEFtwCm/jhcgnFAG2ANBSf2jTo2f0Ba77ePuMXPAbDdjvqqr0De3TL/cfFdvuv/qckb8aemjHW3vOxDl98xjlWM4Abk29r+1X6VkZiYwM9koQq4dH9j6+/qvrD5u48CIA2bZoqHJA5Z5X//TTHVPvyGfKAv8VcKYpMJciyAVVFSk4iyoOp8kqHOoPBKalPGcIUgphPXBOS1sEEFZPM8zLeszZqWdra0pNqr+zr5Z15+SkprVTnnNdU7/0bNd2qMJv9Jy/Dc5FRQUJhIQfBeccT+5yHFNWaxhR1QlndwrOWZc8ubOhKjA8x5MeRsm68b3T2l2e7Lglr7eEgrdkuJxj4xHZSmKmydXe4JW69nh6BnE7SyTq6vY9t+7HPhylQ2/JPbpnTd3AccveqAo03JSTnbamYsuiW3/suD90+5Hnl18GqFxnNIZuU5FQZrXgcxUp3Lp3/bwPf+iYZ3q7vsMeKa+qERfpDVqKCsn9FbseHnym93E64w0fO7UAEHljVGhxJwQ4ljWQ6xFUjh5YO/knTYQaeMFj1yKYdtPBg0d+VpDv+NC7c+FVZSNuGHZ459u7T+e4f9g65Vh6CfHPYBhdwrIYyLBws9NMxFuR1prBJNXOVxxZcwqkS4bNvIyA7baju/705g/bX+9W/0kLnJVw7j928q2AKbnpyPG6i9157s2QBHM5HF9QXVn5NTjn52UBBFAXnCNLRVEEaWn2hQDBwAk45yzRND0hTIezrwvO0gk4Z7m2QQ3OIShsVVN926CTp7X/I3CGVFWDv1X3nN9q/Pzum1Jwrm4YnutJD2sJfy+c9SntieVXRAXmTRUTCFGO3FD75dMfFo5+YHa0w7Is2NgGCoptn3v3PnBRaekvqKNH35P0h6j/iF9cAIksVlEwyHEqkBPB6KFdb23WPysaefvFOGFlcMoIMZHnD297sufLe+Sl5dlKq6tFJJhdvtaWgS63/e9mUnydgHE8EW9DRrMW/XLd8s+7H1Rd4hanHOMUCaN1UVQC00QCCuF96x7b3r3OkEnlRbyIewgIKEXkIYWrCoUpHbs2rdilrzPx8scK2jqipRTJUQQJJBWEKneue6pS/2zohPl9FdWeZ7TZDpEk6d7411t3n3/Z4qs3fLzog5O/LEZfXD5GkkkbTmCUpvAaL3bEEKXtPLrx+fhP/aXiGTCjvL4RLOJYM3BmSPuq9yz7Rs95xIWzLoeYkdXzsxRVVGhNSe7YfML2Jx9n6S/KKa6VnChLCkMSDC7LvEYRskzRyfDWdU9v+aZzGnNR+SACpnM4k96OaHysqIgNBAaYRCypkljIv+OT2T86IWzkpTNHIWDO1BDGAAxBAudUXjICWYZ3eisrJ+a4zB9V7Sq/csyYacO3bXs+dX31ZfT5MycinLQLKiA0SCApGRUJFI0f3vGDM6hhVr+FU5rb4fMaogBL08BEk5vSjMwHuMpXcZxsVlBEwGklueuLx7+WOV9aOs3Ic47ROEExuJKAEAYix3etOSW3YsDFswxS3HAuklVMU5qSVfteST0/Jy/DL1uWGe1IjuAMNk6RJUxBvEaaRFnv+UsQxoTAh1uOfPrEgdFX3VcUDcmFBoqq7b63J1xeXhZO8nkGhtZkKV7T/feUvSbNGaFAU7amYIwKBL31jxKPCFGGUHYe2f70TxrL/6mfl9MZ/+yFM11y85GKuot0OGNQncPS1EPdcJYhmiqrcFh9Y+M0T16WLiTdA2dBEIDd7kjBmWGYl3xVVaQz5/Th3FgXHORIT+uJOf+7aW2MQB5MJZf90Jiz7jnLmLKaxujqgC+IO93uk+BcPzzX44xoCf+4Xs9Z/2JbcWt9S+JP5jS6/OgXcxfrN3fO4PuGYZrnL8GWaJ7BIAIDF+7nO3Sq1Onwi1ePaQ+LA8wmjd+/blZqOq/fyLtuMKQXehkqbVxSwDKkRDzAYdF2TeoI7t66bG3puYtyEZ81tL4h9rckQKC42HPczsGVFhY6Vcg3t7ZWNO7f9vAHEyaUE1FcvETSjP2MaVl+gNghGIbJQJNb4+E6GmKCF+By4MCnS3f2Gff0uRRl1ixpJikejoxKM9LHWprrnEbOuD4pxscrGj7Q7c6vFwW1n6oIm1QxwiaE1p1Htj9ePerCR64zm/K+SErKNUBRTRyhfBoJHe27Y9vKv+jnc+l15aM6ojALkvYilrHzsiRnKIoIWYLYExNDhfFY04E45tsS2P7TZQ/rcI5ETYtCURHkZtP76g4uPQXOA0dPucJotmbLakaUph3DEcTiJIHFlGhbK8LCkiA3BHdveunkRCVYOnz5r0iDyc+S3AiKNIgQqEmBb4tKUttAI4cqBb6+edcXv+95SRox4i67SueOA5hlhNFmpRN8PCvNYWVEQYhBQH6qxNs1CAOHt3zy6A8C9Ohx943gCbaIZm15BosjLktqLlKBoCBCAIApbWxqvSpQV2Us8qR/VPnlwivPPXfmqK1bn/ry/HEPTFQA5ZJxxqPSpB2nWZMsQY4iYAeJCe+GgtXOQ9tX/aBYeHrhb67HyJxbIhH8ckHQu9URgCFI4LLbwgyF9lO0vE/SonUaw7dBjU8qSIlX7+h8GSoYOL+EsQ1uRBi4x4jJDEP6P9/yrwd64Fw6/NeZCl50nsVcWA8x4FR4f/HeTfOWdYNl6IT7HTHVNBZh1jFZmSWSKKi5RrMhqoFEAqeTVIyP8bTGPdXOh8cymHgw2Ba80mXPqUmEosMsBmoXwAApSliJw5EZVTV1S6itqXTn2vvfG3z+zIEEbi7EaMsgzuAGioKX4BRBiYIQh4D4IBxqMgN47L3/xEvn6UD0p1rnrITzgPHTbtXo4psPH/P1wJmhqAU1VZVX6NPa3wbnVOMLIaUQthBDKECzjF5KRTqzdTirXpphVgV8Xs6Vm/OmJkmP4zT1TmNdQ2l6tnsb1NQ5BEWt+iqcWfKrCWEnYs4YjzwYdwLOggIH0BRYeLoJYd1wpnCmur42iLvcrlPgnJefGVHjvv95OA+fMPuSWMSxQFLZcyEQnTUHZ7fqD0TfUY9cxydMN7Q2R36haXGQ7camGJg6/8FdnfW1A8+df52gFV9c3xKdbDJBZDYQQyhCGUgRQAM4MTAhaemRKLpGSgpmpxX8laHB/CQfzyWA8QiO59xR4216RIAKKC7O8dto/i+amszkGLIeQGnHxn/d/f6Iix68liVdcUQa/ygrahaE8DMcw0IIqENwCIoTQvIlgmDWhiMR//EvZu0Zdtnvr1ZE6nxvjf8eT166z2AkX03EohGWM1WRLDsmnhQHJqLRK0SeBw7O8TxFgW2JRPt21kQNRZChFJl8o8kXBSVFznIkHzqyZcuyv5w78eFxjCHDkJCUYQxreATiRIsmgS2qDHBNBucrigZJirgrLrTyCYP3n9X/Win+FF8muX3nL25owhbilAnkeyx7K3ZNTSWE6S8wgQRzaYbNGFFE6WWSsuZjOPOFKGoNJqNhgMzzAxOx9j+bbNjzCaGD2bXxoRRs+41+5lbO4BitquIdGIl9BDTwsSZrgGPwIo4mr+ETITopBv6y74vHZ3XOLtzvEJPmqyE0ebLy8h9saW8+THH03xVZMCJEXBUPi0UMhn1u5sDfIQh+sWVd+fcC9OhxD47AKecoQcEGJWX5NzanWeMo6ktchd5IWJIicXySr6EhK5lsBZ48x4e+vQuuGjiivMTEWXIjMTHD6cy8TaG0MbwS+5Qmmd3xGCiWJPmG1lAL53KnPcHH2/ZVbl36zg+5NsVDbv91nM8ekBQsVwsyVSDGkwCI8VSrWIrlgNFi1Kx2UyXE5A8hFLfQMCkd2T7v0/6jy4vaZUsxH4UfZ5osgIMtN+7bPe/t7mM4Z+idfRWyZCwi7L9XZQUoUuM7tfsW3aB/3ufcOSZcdN3I2W39OmLxe9NtmSqO4ysgJu3BKJXCCeUaiqV/Fo4IixnaWNkRasJZkut/eK93bmlJv/WONOPkaCg4nia5hZWV1Xn9ywavicTa/6ViscMMh4rjCWGkyWibQ2DMMYYxfZCMi4wooMvr64PF7izn+9F4YK3EHvyjb+Nrwg+x2X/DNv+1cJYUODTQ1HjXyZ7z94Uzpmtr1wVKHVmZWzEA5xAksfpkOEOMQDaj9Xh1VcXJpVT7ampqSvWYsw5n3EA+0VlKVdDxY+Gcle1+K/DZ9JuyL122M1AVGJ6XnxlV476x/+ue87AJ5WUCn7YhGgUGk4G8haLUjKQQaa/Y++C7xSNemh2NisvaWppBfp5xR/X+B0ad/OCVnrtm1tHq1ieBmgAFRXnP00BthIjfhNOxXIxmMIJw5R+rqHk4GWoA/fsXPySasCfTw5lYEsMKOsKRA2E+iqc58DXpTPwvJM4bRQkokKCRCpFMESY+GOQ/cWdmyLLQfj9Jow4cEIqoKByAhkE1/uYZ6RnuTWaLeVWMD1bjiHDh0FhSXV37jM1hAzaH6WOOBJswXA7FhEgCx2lOErUrAt6Wq6FEg0JP/g00IyYgBRlJppPxuPaRt7IFDinLf5QgfLu/2DT/72MvevFGGVDnVVZXTs4vyv5QA8l1LEkElaSiYrhB5RPEA41NocGZbsdsSQ3V2G2JTds/LT/jU4Il55QvrmvCFqoYA+w2ck9zxX3Duq9Dv7F/vDARCq5Ns3CApNDNJKlBDOGaIEg2ijCme/1NizKdmQcoGkwV1KRDloFBxc1k5bGq18sGFe8mCTgVx/A8TZEJRVRpUUzmpqfZxtYHDnf4j6z41YCRd2RLonOigcsa662ru8PutH9gz0x7VhAFG8NQmKwim5LArq08fPzSspKStVaL+geJr6ravPmpfafzJV069PaxNsuAQQmeue3Q0Yphg4f3Pyih4Kc4LlVQoiqRuE0RQYY1FNUWVFcddOeVuD4iHcTP6VB8Ek060iBGP9sWajObrMwrABe2GWgiCWUaiQjH2hPCC43NDZb+JQWLwqHa3f7d9P+9WJbrDdq/15Lbd8oViMr08bLhQg0QYziOLY52hM6Jhngc6C3fIQkAAYEnP7uBpcRyHLX545p8CNDOvg2+9g1us1X2ZGq3bVo/488n77hs3JMDJNV6IBhsBxwt/a3h8MKflQ6fnYmUrIsJ2jHp0OEvf3XuhFFJpPILVZX3U7ikYKlOeZpVlOW+dmvOJ03hqAcCeDQUEq5PdmD34RAHmU7LTiMLvEaaqUzEkzTFmP6hQGBMSrFCQRUnHT1+6OrBAwe8zpLsFjEpRzSF0ABislvaIrc0NjYMLSoteF9T694jtGPrDu/4c8v3MtZ/ycpnN5yP1l6kl1IhJM82ssxDtTXVVxQUFAgqRNNkRAytb2y4y5OXAwDobBkZDuvZ2roIiWMhQno/Z+rFeq+Xcrhdj0CEvDhBrmpuDBgynJmplpEkSbzd2tDcPz3btRVqqFMhrKFjcJrdCjQ1kgMxM7IaLMdravQ6Z/vKtFCqznmf19uZrZ3kkcdE40/UeGtu9+Tnd8EZPlQXqJusKyU5HZk9dc6KKAFXlmvqKaVUBZ7lIpBWYwpZHQvzOGswvNW6aeZNnitW7PQd9g73FLqjmNw01rv5f1u+s3TEQyviMWamLAHgdJrrDCxZIfNqvQzxXQrJCXFJXVFbUZfmSKcAASrym4+/5ut+/orHvPzrptbkq4lYHDhsJsVOwesg6lCPHSpP1eCec+FL53SEpM1tTQ1WlyvzdUgbF7KUuV2VVbOYjAbifAdk6fBr9Qee+E33mCMmlpdIqqW1pTVRCxXCmu00PkrjDbu2bHzsfX2d4eNn5tBk3z4RCd586NjR2/qV9vsjrqC/ETgeJinNU+NreCMchyDL7QhlmqTFGGg9tmPz46mpxsHnPToTqNYlB3YdYcvO6f8oY4TbNQAZSGeGwyHhw6qqGqZ/37yHDXRyl6YKrZIG72xsafmtOyunjSLFuZDu2Ljrn+Xe1FjnTr+KIvNbk0nm04bWNrMrxzwWqD7pyLZne+KgZ+p7qmTg3MX1rdhCERHAbjfsCh6ZN0JHQt6wp38DoGFVa52PHdAv615Brqo/sPWZv52w5fwrEknzpDpvZHqGM2dTzcHgBWXjM68RBfK6qsqKm0rPKd5nMLJPcCTW0R6JAk1WgwYj2x5p7+ARjN1etXvxstJRcy+FWkZ6ZUX9nwoKPE2skZlKMBrCCVpAmC7bghk53KAE6urf91dXgXNH9buHwJp8a9c+9o/TOf9zRk//FY4XXHj0cOA3ffsWN9Cs+CjNhj//4uPyVE6Avpw7cfX14aTpxtr65quzspwf4yh26/Gd09vzBj11oKm5bUBJ3+K3aZP0WwKBIThSLZSAqSphONAe1x6orPVONxtIkJamWGxsK7frBwrMOEt+PpE0ZpAkZqEwgsnTZAKoCjFckvFB4bB0jhATACCNwJOT2UJg4enV+2b8xTXk+XFCgt+czgHFgDfdsm/38h7PWT+v0gmLxiLMuaEx0E6kmY3v1e6+75cFQxeNxVG6tb09/qHJoIFsN/cihQc/2fDp0lNyIK68cuaohEbl8BJQtq99/O9l4xbfTYLMGfv3HioaNrzkEyOH1mAokcoPQYhRwzENioC5NdDQeLWnwC2YTPQsqGkNqgKSuEKrqkrgoiSNSwjCguNHjoBhI4vOD3dsEaoP/u3L07mO/23rnKVwnnqbRpfcdPhb4CxDMFVF+LAeOGvKNbKq9u/xnG1pCxEG6nWFsG44IxV5Sepb4fyFKspzaYZZ2dLYPkSHcyIeyeEM/xbO8SSP8k/A2dMuInUAhVMLvwnO3SIkX4UzBNJqDdI1dVUNWF6B5y3/Z3fflH3Jo7sCtS3D8nOcUSg1/k/Decj4+68DWObCtqAyMN2eNh+CNg+fDMM0g3MwIEyGNhFJ7TF5QCgsYXKoCTiz8RktR59YeQLOL/y6Iyy+2t7QDDKdjo/SiPiNR4+WpxKkRo6828yzRbkdUWJDsDnosGdkvEpzlsVximw3a6pNjbfXhSPtwGaI/qn24Ipf93iCo+4dIqLcK7xHGxYXFuV96bBm+dZaAAAgAElEQVTwK3ZsnJuK/3YvIyc+cX5MsNaEBd5vNloVwCcXQVX7hCBhv7qmljciCQz061+0xoiaPtq1efa73dv1H1W+gMKcc/ftOGIcOmLoIwDyO2ScYCjWEW2Pxj+ura4kSvsWLyZxsAmokkeQpNmVVVX9Ro4cOVMSWo/t3XjPKYk/o8YvuCopGa6r8nXcVlCUvQHA5ulHtjx29Pt+UZWU/mpE5dGS/8s8/mavrqD/PYsb2vGFEiCAM9O6q3n/AzqcQZ8Jf1hQcaDqEXdGRjI9jS85sH1Bw1f33WfU/KlC3Pa8LJOAs+K/zWY7Xq9qt17b3t72rqKKIDcr+7CJM75KkORWhFC6KEXpI9vu/mvxyCcuqtoxd23hkPILNMWw2O8PjO3bt/gfHEs/LWlCodlk2IAThv4kTRbJfOIcqEmlmKYqUrJ5K0INm7Zufum0RFKKh02fw9B97jt62JdZ2q9wntmqHdr6yfRTth170fIbI3HbTYeO1F2eV+j5GFrAz/Bk9NJkUvxbIsmDwqKiOxCQBQ5DlQSuxA2QHaBqsK8MqLxQNDSUIdG+eMK/h1bbXtmz5+UzonTXd8SUKwDCoKwZS9pDuNlgzJ7RUBe3GlgOZGZQa0RNeJtirFKt37v2nCIbSDdHb1z3ycJT4FwyYe5YWcnYEI1KBIWT7+EMNsWAwIUAt/6sYsfuXw4dPTDAUrHlX6yb9ex33VMDxtw/jSTz7wrUN5daHeBJlhY/2L/lya3d242+aOk9vJh2x/7dh8vGXDBmjSYL20gKNkEM7E2E5H5Gju2LU1p+Rzg8WtPwhlikdr+ZbXjnwM53el6SvusY/ps+/6+Cs7e66orCwkJBRupUFVI9cFY15RpFVfvHumLO9jT7Q5qGAgzL6p4zrXvOSFV1OK9sbqg3OpyuNRpETxA49nZrY3OZI8u5RZPUeRRFrWxtDn0FztZjNdUVJpfb/pwtDGaf5DnHk3ws30iZH/fWen/ryf86nO3p6YM1pDlPVgj7JjgjjKkJ+JoxV6bzrcD6mTdlnr9oV0tjaFh+TkYUJJrHev+H5TuHXPDgtYmk4W80YXsbaZG3D22bl3o7HzzydzfgeNpgETkuqqoPDxaiMgA0DQrzMw5LifCD9UceSnlFhSNeuq2xpeU1TdOAy8HO49XgqpaDyxP6Z0Uj7zazdFleJEquD7a0OSz2tD9CM/uwDIUOCw6tcjxWF+uIgyyH8urh3Ytu736wB4ybPQQQ/V8+fNQ3NDuL+dxiCK4+tGVFymvuXsomzhoAyKKiUBTNiEcS5xmB8LLJYPwbTVmyvHUtr8Q0BEoKXLMYMeA7uGPBX7u36zP48QUYMN9//KDXWlY24GGc1nYqpEyTRjwaioU/9lXXkX37lC4iobZR5bVLOFP6/AMHDoGc3OxFViP9/t4tt30tljp8wkOzBNX5pCghIMsddyKt9j3f/tfC3+eLqqxsWk48noz5fN+8Xd/Bcxf7gtpCQcaA2ULuiFYuGZUzaPo1Cl5Q3hQIDyzJzX4Xg23Tju98oP2r+01lu2ulG3y1LcM4K3zTxDt+izvBz5ECx6sSurW+romRBA2U9ivTJFXeryj8ZzY7fUDRhMZoIm4SE2LftDTbwrraenOWK3sTy7HvWh2W4kQibjVwZiGWCBUAJeyFGt/sSKMqVaUjsvajJ08LzHmDbhhDkYUXGJiCR1qbwrI7y3q1wgex/Tvn/fPk8zjvkuU3dsSNN9V62y/Pduf88/juW64sHPzsky1tTfcbjUZgd7pX0yRZx9JEMQUAgpIUb230uYwmuo0iZb+otNbu2Laq5z74PtfmdNbtP3zaJWHe0b8tyCyHgABGY/Lztpryi7IGvXZ5JBz+KN0mArsxcuPuLY+eCucLF41VtPR1DfVBypFmexuq8acDuxfszBn1/P76ipqBA8rKtmJa0+/3b33gO2unS0ZOm2Yw9Jve2NTcz5qm3Vex9bFnTj720pHTHzMxg+fs2HkcGzB44DqKwz4CmFwgiAnWkWZXcVxSG5uPMCQNqqWEVsHiyS/3bV3VeDrn/9+4zlkP58xc1yYAwWwjQy7sgjMvI3VaN5zzcrOBhtRT4GxLsz0EtFQp1QuB2lrGkZn5MEJaLUmRzzU31JvSMzNeVyV1Gc5Qfw42tZyTgrMszSVIZmVbc3joVzznozXVlWZnpv25Ftk1qzA9oU9r99cVwnhJ9Bhw5omT4UxCYmF9YyA1rf2dcPbkLoeYshohsqajLYqZzMa3GjfMuSn34sW76rzNwzy5mVGMbxjr/R+V7+w37ubLGab0ymNHWicX5/e93E42f7ZxY7keQetZ+g2+77e8YhkX5anbOsIiYEgCpNstRfWHZ9ToK+UOWnVbQpRei8SiIDOdmaFh3lcauzyTFJyxsrwIT68PNrc7zPa0VzCKekTmOuEsxSN+MaZCFgu+6q944hQ4x5KeD5taY26LRfq45fDCy7/p4e97wbNjWEPO9H07dtzoybI97Ns3b1HZ0N/PaGiLPKtyDEizsFONMNJyePvMv3dvXzzo6QeNjO3+owdrbfkez2KGo3aKmECTFjkaTYQ+8lUHmH6FfReSKtrIC9p1CqDvRYAAJqP5vEPbrv9amUvqRWbcvCm87FzdFuIxkxVlmqhE1sEt/6+984CPo7r2/713+vaqVe+W3C33bkxPwYQQCPB4hGqaC2AwMQYT0UwNNSGB0JLwCCkv5eX/XkIMwcbG4Ip7wepa7Wol7a62zU699/+fXUm2wUmc/yOWjWc+trRlZu7M9+7dn849556zevvxfmGNmXHNAohHXLJns/r/pvaPbTmXjbr7wVCUrAK0FbjccHN07/emG+cvmfJ0R6RbKqsq9D7BZsOP7937eX937fQlpTSse7azs/tbvFN9J7rvia9Uzm/kOcl6oabIUzUZSBbeM6c/npkWT2YtsqqAQIlHttrY55s3L767eFzjSBoy+8LhblhYUNbqcrneAEQv1YkStVucrSyHI+v/57qjplyP995Hzlx8PgAFkiw61ipZkPC6rAsQ6Hfs2Lz8KHGedsYTV8i648rde9u+XlNZ8z+HPrnhguopz/2krzdyPc2xgOX4PxUXBT6UM/FKXRaDfhvfTIHM25/9PB/vdRn7jZpy7tcE7EHbt//yuIq+BMY/adXTaLsoS3UBH3ivdad63oiZtV9ra2n/Y02VFXBU9+U7P3zsqKC04snfnWN11r/bH+3neBa9bWHlOxWszk5nuKW9wcicUaPGrHUJ4usfvbvoZ//o2uvnLruFReWL+vriY1ih/972rc+tPvKYmgnXPmUTptzZfKgf1NbVNAMm+2Z/MlxutZAQz6MgotNxCkU3ffznHw+5rf5Rm6fy+ye3OO9tObewongdgOpyG8/f39LUbPicsxrAnxdnVR+TSqUeMZZSuV3uVRjDoGDJi7OnoOBBTEgLz7PPd3d1ObwFBT/DKn6SFqi3DHH2FAc+UCVlhYXnnu+NJKYcFmeGuKyF+5oPHXQEin3PRZTQ8mpf/Setra1G4YuUpCpVAs091t7adkNFZUVUzcrjKJ67P9gduhlRVE6cVV0v6I/H38lNaxeX3gxk9f0j0nc+KSuZF50uT3PLoQ5UGCh4q/Ovd19Z8ZXGLe1N3VPqqkuSWqrztBXnKV+5u16RC38virwHRLVy1h1z79vS+LmCD+Mb7ri6X/bdEOun54gZFQQC/pfCh2662RiYdTNeuzrUG30jncqCklL7HZDreCn40TO5ggTTpzc6Epy3Ipvi3usJJ/wur+9VwOoPqRaYE2c51d+WTkjIziZe7zxwWJxrJ98+SdMrX4nF1YkCr/wx4E09u2vj0VmZGmasqKRtI+dlNfqa5tZDZxa7HC8JEP1c1eHoZFp5OaXSoLy8eJEuh0OfbrtjyOqun/bDe5UsvrN1d7N77KTpjRChLRqWOMYGEykp+n/aWluF0dU191NEXyuJ2lcYq3NluCcKPM6ClQKj/HL3lltz/uaj/oCZtnI5oCqe0DACitJ5A6OH3mna9UrweL+4Rky8/QqBG/VWf6L7O35L19vbtr2sfvbYkZO+/72mDrER0AzweNX1PXtXzauaeOUlKWnUA7EYGF1d7nlFU3uWt+1o/JzFXtnQ6GLpkv/uicZmabDn7XTL968YPP/48XdZGQ9zblbSy1XdUkywB0TjysJ4T8RTPrIaAz25MptNR1x256pD+w9V142Y8KHb47hRziardmy89SgBPd77PXK/MTMXny+m7eU2W/Uzoa64dUR15eU8pSXWvvdvR7kP5pz12hUZjf733QcOfK26tvJ/itnQN1qzrtti0eRTqq6C+vrKx4jWv1Vzp/6479eNOT/rF7FNnbWyQdWVih2bnvq7f3zUTW70KfaKtBhKv5+VYzMcjux/CRz/Ko28cldX758DXg64XanLt3xwtDg3zP9hQ7yfWZ9JJmwcK73ddWDVFeNmPnhGSrRd3NYSXtowaWyzpoaf27NxxZAr6W/dV/2se25hcPGt8f7EWKstde+nWx8/SpzHT1uyEpMRS/Zsby6cdfbcDxQ58mNEwh9v/uDhkyJF7RfRX//MOU5ScR5YSrW35dxAefE6iPLi3Hyo6YKa6hpRg3iRBpgpRrR2znLWlIs0DD4jzjjIC5YXu9rahJw4Q9zKs9xzhjh7/P6fEo08RQvUf/SGI+O9RQXrFFm9h+fY5/oiialGEpJMRiy1WABwWQv3Nh866PQX+57rzYvz9tbW1rGfE+eqyj5VlMYfjzhLunIwauTWrqp4ElroF6GkNLc2daDikuK3QuvuvbLmaw9tad5xcErd6LqkKofntq7/11bS+Wc+MCdy39ppd94RS9ifLiyseFLJ9H0IqI73mza9kDzWNYyf+v2zgzH0l0xKQ36/L0yB9JL2vYt/WznpJ1d39fS9DiEHvB5qGWVp//GgONdOb3TQnLcilYLvRkNigcfnf5Vz6g+lWTnqBKxL6k+3i6KCHIL8WtvO+68fEoy5KydpWunCfTtbb64fW/MXuyP16NZ3l6898romTH/0PCgUbo6mM00IAa+aSj3ksjl+63W4Ru7cc/AXgHaCkorAIlUMdzXtWD70xVo16bl7bbzzzj2f7HOPqKlvpHh+i461nDiL2fR/tbU2W0ePqLufBfoHiqyOFTX9rrbOrsrRdWMuZXglsWPdzUcVNZgw87bzMao4v6+fukMQuB0sH7vswIaVx+2jq5lww2U8X3//oabY6LENIxZsf++6Y1ppIyb/8Nmm5thtkELA71dfihxozP1xVDHp0Z8Fg9JV1WX+Zo5OzN6z6d6jImuNKW1ZrryYp0pf7ujo4Fw+fRmFxBYG8tShLauGAseMczU03O5K0aUzJYmryOr4R4qaARwj/tTtcvy3mNTmRUJ9i+trxrRYBPTC1vXXHjVlOtg3Cy57eAYHNf43bzce1V9/73M9Yeb9N6nA8+2D+0Nnjaitfz3gc67R9MS6D9dcPzSlOuest65IKdqVO/ft+XptXdWfKIq9TBT77Axr3d+yd6+jYc7UPyCQ+c32Py9581htnX3+knOikbS4Y8frRuIacjzjbPyUiy8RbDOXclbnig/++8aNf++Y0aMbWcVSNSaWiG5nGAkE3Nq9uz68f3X9lBdmh7t7NlSU+jHN9F75yfqHhqa1jZmlbLJ0CU27H0Z6FiAY/2Xz3sbLR09cejaha2Ekpq7xeezA6dKfp0HLbz9a8+TnisNMnX9NQ1YRStIq7OJp33QGFi/u6+ke6/fp9+76+KGjxHnanDuvUEHVxbv2dFwyafL4ICCJ5yAMvr75vUc/5wqpn/ztM2UdExpnmpp2/em4/9A8Hq4nyz4nrTjrTM2/793fNiTOFjYXrb2gpqYmowG8+AhxJlhTvmmIczqdfiSbzQKny7kKYBDkBesPu9paLZ6A/wGskzZe4J7tDgadngJDnJWnKJ5/s6+7Z4K7sGCtpmRXciz/bLQnNe0z4ryn+dBBl7/Q+2yvFr77CHFOSqpSLVDco+1tbQsrBsQZCuyqUDh8y7Et56KbgYzfP1KcDcvZarE2d4d6USDgf6vlneVXlsxfsTmVkKf6XbYkLfbNPbjp9BPnGfMaL8wQ7+W9Se0Kt9N+hiUT3LptW+PfDJSpn/7QJTpV9nJTU7Ob5RlQUuCa3rp16eb6WW9c2xdLvRbtiYO6Ov8ypXvTj9ra8msj8+LsqEimqHeiXVJRQUHha7RDfZCFMEYw7RCzyY5Yfwq57PA1v63/Vzs/evwd47gJcxrrMhmntzcqrvOVFDEExO6x0R1bdq0/nDp02nk/OUvUqPo9e/e8WFZbs4aD6OcsoduULKiIxxM/p3gK2GxkEY+iXfs2HY5yrZn4/H0CZ1u2Z/M2d934sY00TW2WkcbRPJ/MSPIfgq0dthG1dfezCG2Aqm5VsT4vGAotLy0r2Eox2RcBnfzTvrWHZxfOuuCN8zpC2e+1BaOz6upKrheTe/e27Xpq0/F+AY2avHJSPGHb1t3dBcpqS3ZaGO2pg1vuP0pgKsesupzmS1Y1t4ZGezyetMuRnd+8/Z5tl156KbVhz4gJFqFsa1tLOxw9suza3R8veuPIthvmN7pU6J23d1fnH8orKg51bO8daUydj575o8VQzXTv3XrXUYF2DfN/VIlj1t4on9wR6Wmr9XqoZ1nA/Zmo7gksdFwb6e4aWRhw/Lmo2PL9De/cOJSgZLDNy698dRHEaoektcZ/9+vHjysv+diZiy7QtYJzUiJzG0XzaX/Aey0CksYQZfOHa5bkBHr0nBcutVj8V239eOuC+pH1/+OpcF7S39p5JsHka6lsZpGsAVBTXXEJzUg0k+7+zyOns6efv+JbgsC/t/b3jf1T599a+M9Ea4+c0bhGwfaxPIuftAli6+Y13xtykRzJuXL241frqv1b8VhsQXGB801ajb7D0PT7Scnh6+7t3+Fy2pXSYu76LWtuzfWtMWORAJ7LEeef29badrXHToDbpf2y6ZMnLh8388aRojxylArcF3Y0HbpmyrSRBxgq9qiWDbdt+eDxo1wrk89dfOm2NT/49biz77soKyKvgyu5vTfcNVbg4vd+uuuFo8R5wqxbz9NI8WhZsq5qaw96GsaPfpZhk+sySnjrrrVPDAnw1DOXnk0RT/PHaxvbqsdcPLVl72+/8NUHxzs+/pX7nbTijNnyK/fsDZ5XWFayDtBguYWhV7W0Ni2ora5OawAu0QCa0hUOLSovL8VYUy5WNDJaFDOrc+Ls8NynYy1otdh/2NXWZvUUeh/AGLRyPP9sJBh0efzeN4gOvk9z9Ju9ke4J7kBgraaKK1mGfybWl5hulIw8bDkX7Gn+9FNXQbH/mR4e3F3N2re3trWOq66uTMgkXc0T+2M5ca6s7FWz0oR/JM5EUtfKWD8wZDkj7UUEmeb2tiAKFLjeCq1rvLLy7O9ubmvqnlpXX5uEidBpJ86zZi35OuBrUn1x+lcZTWdcXno6Ab3d+9bmo6yPtY2d89AF/bL71WAwWEBREJQV+f8IAf0TBB3uvt7ETyUpDUqK2TuxPfNi29rGw+Js91Yko/idvlCyqLiw4HVkA408o8X2rb01U9bwg6bOYKi6vLL4A59VvW/7umXrx8y+50JFRtaGqgm/2tHasyySiD/hL3Yf9Nu0uyUxBhFmMUIWlBTRDIvbc6eCJQZjvBRo2d0QcDTUrYWhrvDPVV0E1VXuxYrU1nnw4+eGlvTUTH7iLhY5V+zfvdc7cuyYRoohm2SocTRrTYjZ7H91NLfYa+vrvmeBaLOOiQIxwIlUfFkyHV1QW1v2OMbyFl1Ord+1sbFn/JznF0hZ6uK+WOoah8f5B6z1vuXi0xt3bTr8RfePvlzqxt9xOcWWTteQ8tW2tub6MaPH/FRXlP2KlOkRrDYiicjLWZ11O7fvuLGovCRjt3DfxUq4o2nXU7m83yMnLb8gJfGlCNh/xLJ0r9UFHoG02qnjOKEoChDNOkrDlkZRBDTLcVenxWi/oHGbrDb3U5BoHprO/DeFlO6smsUqZjEhLqRgWJCQUi/bbPgTpEdeatv83EtlExuLYVa42sJbbsiI/dX+gPCuIDDv8Ly1l6YxdrsoKiuKPikBZteNKn8w1L59xH/+5wNDUfL/iMP42XdfrQHP2NaW0F1ujz9ZWV2yShRTvIbFPoYVNJZzKrFI5pauzu55hT7fn1p23f616fOfL5Wk9DRF1b8iKmghxTBkRG31rclUN++044gspyDgnDzH2vrETOKsTLLnkwSbfPufSRQzau4Dt+zf0/3iuIaJIadNe74/uT/rcXPdqaiqCxYnyBLFmcrqpby1vCHSE/+m12n/KYOz63avW/m6kbglli69rC+u/MDoi8KA/XVdDX8gCAwOB9VyX2FlVNVJRawvtJSGScFiEX/b9skLuQIwY+d9vywjseextOWr/f193yorsrdbeO03cqanlVBKmmEwrWDszmpoMi84f6GoyKJK0EoU7nYlkxxLo/idn+58/unPch83465zKNo7XZKoO3qjce+o+urnCRY7NT0RBFBTIaApGllFgPkpqpZ+RUxsLdv9ya+H0uT+o348ld4/acUZsWVX7tjVel5Jec06HeLlNqt9VVPL/gXV1eUpDetLKMRNbevoWFRaUaoDgC9WFG2MKIqr02kRFAaK78tmxaAg2F4It7fbC0pKHshKUqvdYX021Nrq8hYXvi5ns0/b3e43wx3tE1wB31pZEe+x2ezP9EZ6Zrg9HiBlsmWCYAFWi31XZ3u72+FyPJN00HdXGeLc2jKupqoiIUOxmtMtj3Z2dN1YWl7am9LIeBuNVnWGum5leQ64HZ6JKsr7nHPrnIsKb5YldS0gOCfOZWXlTyJdexEKfHNnZxcq8Dv/I/T+qn8fcfayzS3B1NTy0rIkSIfntp5GlvOECQsv4LjyvZh1vRAMxb7OW23AIlDfRnpG5ED7+39rmcmoWfdWIFTUFuzuBTqBwEjByvL2UThrnRqNxX6m61EQKMT3Hdq46pHBAWpYbbpW4NEgv7snErI47cLvOQu6dWxhSc/HTQe/7nIGPM0tXa8SApHHbl2HaG2j1+sI6jhrIzT9U0lMzxMsngKaZh/gWC6ICXlLTIrtNCuMstkc/55KR1MYim8r2czOgxvu+XP97IcupJHVEoumf4ExAl4/u5SAUMv+9c/mfKNjznxwtpxm5nk8pas/2bYP1NbVP4Ix2CxrKuQE2IegvqG9/SCorS6+V5EzBw9s/N5/jp76wNm81c5ks8rFLrf3YknBv+vvTyqIZtspmjvHZbOPzWSiazStfx2g078++OETqX/2C2rctNsvQjRfn0zp1S5P4WyXMxBOJTJhiuFpTQPjKQbVxuLtf6HozCu61gubtr5ylP+zfsrSb1DIW8jZvCsRY4npiPo1htpBRVYqbSyzEGLdomv4kUw23Q0g/uvBD7+bGjPnB98HGC5zOZ2/03RtS0oUmwiElNXinNifiF+Iob7PwqZ/jzMH+vZt/Vmu0tTYqcvKABa+yXCOGQ6379ucxd4DCdzCsajL4eAKZTF+UYHHrsbioUZJDH3yu18//Ll803+LzaSZN5+vEme5mKW/6nAVn58VNUuguKAZUPInFATptCiVYRWefejTT0FZUeG7ezYtP7dh5sOzdnx038Yxs+67hKaEUXaH+wpZBaN43rLPaXd8jImeRjQZrcjJc1hG3ZMORqauHfjD8Xj7aOz0lQGdL9zPcZzKMtBN0eofACb7aMD2EUA7aBYVIpbySZl0jaYlf52Vo6Hd7z0xVPii/tzHi6Wk6/aOjo7lfp8H+Pz23yCANmENhwEBdknJyjSN58X72q5xONHHFk55bPf6H+b6d9SsOytU3T0vlVLPG11fMxXRpETg6R2qnI1pRMOCRZij6YDq7Y2+QAB4N5UQJ/r9hd/tbG8rdti45xCI/nL3xmc/J6wTZ950NsX4awG0fEUQPBcxtNCtA7BGx6QdIlgIIDzTIghloY7ti4F+8L3dW377uTiL4+V3Mu93Uopz3bTrvsNaqv+tqbnnfH9hxToAyHJaQKuC4Y4FhUX+JIXgUh0zU/p6exd7Cz0qBvgSXcGjFU15NJMSgdvru1cU5S6LIDwf6ep2uLzOB3RNb2UF9tlob5/L6XG+pkvqM7xNeLMvGp/g8/nWZsTUSouFfzoej88IBAKgPxo3spsAry+wM9jW6XG4XU8n7eC7VaxzW2tr0/jKysp+DWVqWMW6OtgVvKm0vKwnpeEJ/5w4lz2BdP1Hhji3d4ZRod+eE+e6s5Ztbu46PcV5VMP1FzGMt1jTSJmkKSCTyQC/x5vSAd6h9oc2NDX9x7F9zjMW3ZJMUeUWmxPEU0lg+D5pZO1H0CVlxEQhxlFQFKBikIps2v3Br3JTb4YfTrUpl6gqNU5REsAiQAx0ZVPTJz/KWbJ10+67yOUKeOP90qVOh8tLgH4QYwkqSrxFkhIbm7c++6ex8+65WNfo2v5+aVx5ZW0CYBpACqJYX4ggpOyiGaV1z0CCkfFzF01SdXZGoj9bRjALrALdS/O92w58lC82UNtwzXzB4quSVVgXj2aB0+1PUhS1hmJovj8WqUdQr6WhBCCt9dkF+v1dH7+ci7gePXXR2Qxl82YUMhpDbozXV7SPIIYmmgrj8R5eYLWNgGT++r8tFjBu2o0XsYKvLBSJFXOU1ajOAVjGAmQ1nbIKSifG/fGWnf9xTJ/0qMk3XkTzviod2QRAW2tpztIHddVOYVGXM7HmTCbR0rb7h3+om3ynT9KkGXaLsyKRlkuxTgf8/pJOmma5jJgmiirWIah/SnNwNwVisb0bnj9KYKfOuaNaVtEkDfITIRTGVZTX6giRkQyLu5KxLgcFMu8BkFnzlz8+9bmyisfzRT1pzrILdMCOicZkF80YeWBlALAGaMQAmkYglUgAp91GrFbuE1WVPtq16YXcdGzDmYu+QUFLsepObUwAABrGSURBVKLQ5YFA+RSAOSvDsHarg9r36ae7+yiQ7EQZ5fl/do3zqJnXfVMjrtEUTUsEE5euY1rDAGAF5W6HRTSASMm4bGwXpDL9m//6/FHT3pUNt7vszrJzJUmuELPiWKfTacuImf12K787K4qpMhtac6gndD1DaZUQKSrH4h0Htrx1VCzApPkranVNn6frem1/MgmdLieQRRkgGhnOc1UQLGt3ffDYX0fOuH0+IOR8SVIBgqDTysh7dm/5fCEN47qnzL7mXIb1+aNxfYzXUz6O5qwQQtrDcGhfc/N+D4T4E7s19fKujT/OpfL9Mm4npTiPP3PZdyAq+redO1vOL62s/QAQfDctKPe2B5sWFJUEEhTD3w40dkpXd/eiovKAQoh6qa7hMVlFXS2ms8Dt9t6nynoXZ+Gei7R3OFyFgQd0XW9jGOrpWKTH7fJ7Xtc0/DTLsm/GOrsmuCuqcj5ngRee6QkGpzv9fpDI5i1nj9W5s6u902N3OL+fcpIVFZRna3tH04SKyqo4yUo1NEc/2tnReVNZRXkkpeEGC4XuC4aCiziBB26nq0GFJPC3Lee8OAOea+4IdqOiAvubXX9ddVXdWXdsau5KTysrKU3ATPe808lyPtkG2YRp3/kmYp1ujImVZhhdkpIxSOTUns1vHr2U5uxF3kw6Ox8QaBOsQjqRiiYPbf3FUcFZJ+LeJsw1LDzoIDot6LqaAjpe/+m2l7+QOtdfxPU3zL3xIooRmJQk8xxDS1COSrs+/sXfLH05efKNFpnSzud4iyArskagmtz70RvHZfFO+9qyOizByQLPWS08LWu6GH7vD4eriX0R9/P/c46ZZ914qUWwWxjGSsfSsezmd3/w1v/Peb7IY6bMuuEbDM+zqURK3LPtp//rKPcv8tomzV18PkWxLlnK8gDhjN3KbPxwzZd3ffMgu5NSnMfMW3Q1ZMv+bd++7vMqq0as17G0QrBq9xz4dMcFtXW1CQzYOxCyT2lqarm1uKJApihwmSLLY+LJ5COKKAOvv3AVArCL5thnwwcOOQpqKx9UFK2N49mnI83NLm9V+RuSKD0tCJY3+3oT431e/zpZFO+1OuzP9PVFpvp8PpCIpcsBYojH49jR1d7utbtdT6Vqxqwoi3Vt6+xonlBRVREjolaLWGp1V2fw5tLy0khaFxt4ynJfKBRaZExre1zuhqyuBtKpVG5aO1BQeLOqHjGtXVL2BCI5cW5q7wxTxQFDnO+/asSZt+fEuby0zBTnL3KUm+cyCZgETAKnCIGTUpzr51x/HaIrF+7fF55RXl2/RdEzy21WfG9r56fnVlRUAFkFt0DgmhyO9N4QKHIAgpRv6RKZICry/aqsAqvN/gCCKMRy3Euh1g7gLw08pkhKh8VmeTHc2Qk8BQVvS6r4pI11/qYnHK3yev2bdF1fYbVxz4ci4XEsywJZFgt8TjvN2z27gu2tPrvT9VRqxKcrymOTt3Z0NjdUVJRHSTYzAjKOR0LB7ltKy8u603pmIo+Ee0Ph8GJDnO0ud4N2lDgX3Kyq+pDPuaS09HEN4x/zg+Jc4Ph51/urvmOK8ykyeszLNAmYBEwC/yICJ6U4Tzn/5qtkpaiS4QtuTme1n+AseZpypK5V9ewNFEfvwhJ6WtaFeobhl2NdPCRp2RUI4hEcK6zEOmCysvwgTUAPw/N3iFmxDhD8EMGkh7fwi1RFq9Ow8gqvc7/AAvoeB/hzMAa/i2fjL3msjkU61uYjGrUn4sl3EI26HHbHLzs6OgJOh/PJRH3zPZWxhq0dHW0NFZXlfUTVRxDCPNLV1X1rWUV5TpwFxK/sCncvOaY4BwI3qYq2bjAgbFCcOZ471NEZposPi/PHzV3p6eWlZf0w032GOa39L/r0m6c1CZgETAInKYGTUpwb5l/ToCreWsD7XBqgdZ2gKKYkG81oVkVXFIRhSpONuFenS9cyKsZKP4EAcYzVBRCGGUlJQE3XIIXsEFFMNiv10wjqiEJ2mqaZTCabBjTOMBTtQCqxQgQzGtCSEEAHIEBQVSJ2b3n8V8Uz7l3AMtYXOjo7K5wO+5Px+tZ7KnunbOkMdkysKC/rxViq0zH7cDgUWVRWUR5OJ1OTOJtlZbh7UJydDZqiF6Qzqb9oigJ8fv9NWDPEGRyI9vaBoqKSxzDSX+I49lBHsJsuLLD/LPz+/VePOPP2nDiXlZT2U1LfvNM5t/ZJOm7MyzIJmARMAv9SAielOBt3PP3s28ZLRKhRGJcd/7+yRBhhIEpplaNpSBmL8hRIiE50QgPE0hSl6RirsqYBo0QcBSkEKSKLWQ1RkNAMQ2NNI5gQHWNCEA2Qsd4GE00HGBhRhRBBSCmqrCGKIqpOICQ0BymKY2nLivaOTpvD4Xo26eGWV0Drx52d7ZMrKip6+vv1OpuFPBwOdy8uqygPpZOpyZxFuCfcE1lqWM42p22irgJ/Rkz/RZXlvyfOn7Z3hpkiv+1n4XWNV9fOv23IcjbF+V/6+TdPbhIwCZgETkoCJ604G7TGzr1hPOD9E4jFdxbDOq7si8VDLEQA6jqidB0wDENkQoAO87dBSH75gPEIAONFQgjJp8KDEBgFwPNp8YzXcs9Jfg+IjRNAQoz3CcEgdx6dQFTUE+6zqqoCnG7vK24rWKLR1vXB9rYpZZUVkUxSrGMp+HBfT2xJSVlpKCsqkygGruyNRZcyHAvsLsNylgvSmWxOnAsK/Dfqmv6BYTn39fSCkpKiR3UIXuY49tPOrgjjdbM/7V3/8DU1Zyz9qDUszigrKY3rydAZwW0v7z4pPz3mRZkETAImAZPAv4TASS3Oxh2PO2/xyJTEX0Pxvku6wn01Um8c0DwLGKACQzQBywACB0X584xy2jsg3offxYYof2ZnAnISPbQZTxCwWl0g09cHPOVlb1ACtQRq1Nrevp7JgYC/W5FwPUfBB3t7YreVlJV2ZUVlMqTAPdH+2G05cbY6GzTy98VZI9pPeMFyoLMrwnqd3Bu9Hz50rSnO/5LPunlSk4BJwCRwyhA46cXZIDnmq0tGq5r9q7LKJlRVLUYYCxylaQioEGMFGFPVg8QRIPl7QnnBHpRtDOBhNcb5qoM4t9tnhR3lXseEIQgiJEq6laUFNwXo37dtfvj3I854bFso3DnJ6/V2i0iq4zTLg919sdtLykqDUladAmm4ItYfu51iaOCwuY4SZ6/PfyPAhy3noqLC1Rjqr/CCZX9nV4Q7LM5LNraGszPLSkpjejI037ScT5nxZF6oScAkYBL4QgicEuJs3Gnt3JtGA2Sv0RCrtL2/OleA4MRsjahyPmAH8zGPOufJT/bv399QWlrcLdFKHaNbHujpjd1RXFrSKUvaVEKTFf39/UPiLBO5IDswre31+RaCLF4P2Py09qA4c7yQE2efm3u9d8PD19WcsWRjS0icWVZcGsPpsCnOJ6ajzVZMAiYBk8BJQ+CUEedBYmVTbrkQI7qd5m0LVJ3IqkYU3ZjY1imAgVFmNj+HjRCChtmMhmznATMaAwApw1GdP6OODcsZ5VLw5axpasDC1vMWtYaRpqoycLk9lCxJbo5n7gyHw7by8tKubFgaCR3ggWhvbFlRSXGHqklTCaFWxJOJO/KWs6VBVklBVs77nA1xJqK6AXLUfiNau7AgsBpT+iscL+zr7Irwh8V56YctocysspLSKE6FzzQt55NmvJgXYhIwCZgETgiBU06ca2dcv8DCez9JAu7/xNPqBKxTOZ/zYR8yzvmYB//r+oAK5yarj95gLoAs/x8RPOBzHtwvL84UzQKKhkAUxdxMOcYakPp6QMnIukQ2o5bTkNzf1xO7s6ikuD2RTk7lGW5Ffzq1LO9zFhpkDfuzkrTmWOJcECh4BCD86rHEubkrbYhzH0l3n2WK8wkZC2YjJgGTgEngpCFwyonz2LlXjE/pljIiBGbLKj8P6dRsgKFCiBG4bagthgOboa6QZemc+hqvGc8/S54CVO4lCPCAt9pwTee80bnXEaJyxRc4jgM0TYF0NgkMs5um0S65j56NHODB3p7oHYVFRW1JMTWNZdnvJlPpO48lzm6Pe6Eq4Q3cgOU8KM4sx+8Lhnp4n5t/rXfDQ9fXnLH0Q1OcT5oxYl6IScAkYBI44QROOXEeJFQ2+5YLCebXAN5zJtQYBgM9remY0BoAxgQ1TTAkFDp8f/Tn2RovabnZbN2wtAcCxgYt7fz+mqQBq80KNE0DspaFHMfzmWyKpgEMR7Y9tSkwo/HpnDgXF7UmM6npDM3encqk7zJSgNpshy1nIwmJy+06Spx9gYJHEFBfYwXrnmCoRyhw869FDHGev3hDc1CcXVpc2gvFnrM6t/54zwn/ZJgNmgRMAiYBk8CwEThlxblmytfHYtZVrDDlKVYIxBQpewHQoaipiop0CCmWJpIqA4amIKYwQARCQOWtZESo3H1TRlaSoelu/XDUN4QE60dPb+d7yKjFhgk2zOzcP2jnOP7anp6+BpfH1ZFOyDM4G3ubKInfxRgDt9vXIGuSX5HlNZIkAcNyhhhvgJDa39fbC4pKih7BGniN4ak94VCv4Hfxr3VvfOj6qjNv2dDeqcwuKizv1ZLRsyK7njfFediGiNmwScAkYBI48QROWXEeRFV9zh3j+hLwzIqSyu/0x1KTNZUATcuvY+YEo4BFFhAE85lIcplGBn3MxhPDP228M/TuUA8M+rAPr5E+9lrqVCIJ5Fz2L19MFrNTAc8tFNPpFUY9YavVOgFjUKBo8hpjH8NyPkqcCwtWY0K9aohzd6hX8A2K8/xbNrQHldmFhZU9upQ9O7J1tSnOJ35smC2aBEwCJoFhI3DKi7NBrmruLeMZ5PoWYuwLuiLJiYLFAVSsA1VVcwXQDSsXEZQPEsvlDxsUY2x4mgd8zDmb+m92hGEuD26DwWbGc11Tcuez2CwdPKvXxzPke4Y4G+k7WZY9pjgjRO/vjURAUVFgUJz3dndFeZ+bzVvOQ+Jc1aMnxbMju0xxHrYRYjZsEjAJmASGgcCXQpwNbqPPXDRGVtgpMrD3aIC2iypJ8DRLNF0b8j8b/mhAA0ARBDXKeIiHprqN5J2Gs9rYBUJ0OGGJnk/5qefeMR4MOK8pw95GEOoyjzVs1YjeSSCkKYb+RiqZWipYLYDC1ARMaQWKpucsZ4/Xu5Bo6oZBcQ4UFa0GBBqW84A4G9PaD1xfNW/RhvaQbFjOkWxSPCduivMwDA2zSZOAScAkMHwEvjTibCAcNeuqsWlgFzo3vrjFPeP+r0KK0gAmGUrXKUNSaXrA12wEihk+aNoQ44EAsAFhzguwnhdkOJCL23ii5R8bAWQ0PSDQhIKqpoLcMmugq1bBMotA9PVEMnGGIAjGmunJQNFcKtbfM8TZ7fEuJPhIcS58FBD0CsMzeXH2cq93b2i87rA4V0coSTmnc2ujOa09fGPEbNkkYBIwCZxwAl8qcTboBaZcNpYWCkZy1qJvM4zjW6loKoKIDhEkRtVICgKIII0QoVjD24wo+nDi7dx0N0FGIQxgBHsb58OEGPlAcwUxBopoDLihc1PgkEYM0bGuKqqKEEJRURRro9EoYHkecCw3GzGUoKrqu3lxdi0kGA9ZzkUlxY9iHbzCCuzecLCP93ktr3dvWHVd1bwlG9q75NmFRZWRbDR2Tnz/U6Y4n/ChYTZoEjAJmASGj8CXTpwNlNXzbhzHsCUXasB6VfO+9vqcW5moAEAtv9IZUsYK6IFkYsZ09ZEJSvI+6s/5nz9bKMPwQUMjYts45wBGljGiuXNFsTiHA9hdjpFqVi/RdDlnObtcroUEHhGtXVz0KKbBKyw6tjgHAlURrMjnREzLefhGiNmyScAkYBIYBgJfSnE2OJZMu26CXSidJmWptAZQOTbqN0MdG0ucVIQAJmzu3lkj9Qgy0n4ay6wMI/lIcR5Q5MGlVbnQbh1gLf+6EU4GsJ5zPQ/2nY4xiyhIQYgkiJjNCGBGVtW/5JZSud3HKc635SznQKAigtOpc8yAsGEYGWaTJgGTgElgGAl8acXZYDpy5jXjIOcOqLrVJev0AQABn84qxgZYqw0oig4ZoOTWQgNCQYb5fE+ouXTdeR+0kbobQp0oxmNFzQeOsezQQYRQkOg6BSEmLGIw4NkZCEB7LB57EtE0cDqdCzVJ3UDzzP6evl7g8/lWI0i9ygrsnnCwTzg8rX3bhragNLuwsDqC09lzIrtMn/MwjhGzaZOAScAkcMIJfKnFeZBm+dSFCzlL8QyKcy6IpcUEQJBACiBVkaGF5gy3s7EhCAmExHjTmLNGAJJ8EBjJL77KTY4TTDCBOiEYGu5oIqmGcCOAYG6pVu4QAohuGNOIolUd4JJ4LOYyHNV2h/MmWcMf0Ijsj8eioKi0dDXWyasMz+7u7uqzHCnOecu5yhTnEz4kzAZNAiYBk8DwEzgtxHnU3BsnEeC/gLWXXLNr6+4qYLMAoKcBIIZ/2FgThXJ+43xCksPT2kb+sGNvupEdLP8Wnc86lj8eAiPA25g6B8gIPRsoyEEw4CwW4Ha5FiPEvouhfqC7JwKKAsY6Z2Mp1WfEef5tG9o7TXEe/uFhXoFJwCRgEhgeAqeFOBtoqyffOE6nC+bxDp+tN5aqgUxuDZSONAQRpgFBem55FTJKTw1UysCGeB+xYcO/DA3rORf0ZfzCxvpnw4Q2/ueOw7kwMYAoBGmKBjrWWZZlBQgBgwF4hgJUVIO4JRqLAq/f8wiNwGs0J+yKhGJWn9eWj9YeFOfCqm6cyp5rTmsPz+AwWzUJmARMAsNF4LQR57xAXzNOpZzFnNXDx9KJ7ZAWMKcwsq4CRAQFEsxCgpUcE4HPB4wRTA8wyub6yPgJJTXvg0Y0gUglYpbJPYdIGUpeYjHOJQycz3jMq5BTmLjOwpmyqr9rVLoqKPQ9qunaT2iG3RkJxew+rzCwznnA51xUbYrzcI0Ms12TgEnAJDCMBE4rcR7kXDvnrgWYFsbIEpwHAMoa9S9yRjEikEJGdcl8shLD7Zw/Jr+0ihg75RR70FJGRNUMJzQhFKCGhBlCwxttOJ2NM0GgqCo2HnMCzwAIyqKx+DRFkkBBceGLiKaepGlqZ3dX1HFMcU6mz4vsfmj3MH5GzKZNAiYBk4BJ4AQTOC3FuWTid2ayTJFo81SuOXhwv1/XjYpURpbtXOlIYExtD+bfNn7nF0rlsnIf9XruDUQPrG3O+50HxNvIXpJ7TjE00CUpfzjHAkhRgGgaQBwHAoX+PxCEbmcYemc42OfwurnXIxsfvK5i7pL1HV3KnELDck7K50V232+K8wkeGGZzJgGTgElgOAmcluI8YtI3RxGm0KlptomQtVoVjEfrOiG6jrGRSixnHAMCDZczM1A4Iye2xspmZGhx7gcgkCIYAeM4QnRCcmueAUUw0AACtJE+zCiHBSmKhjTLIE3XDMXmAAUdLMNwNMP8HgLyVwSpnaFQj9Vj1HPe+MD15XNu/aCjS5tbWljTraZNcR7OAWK2bRIwCZgEhoPAaSnOg6DHTL90NKYKfBq0cv2M5SO1v59mXC6tN5Ymfo8Ngp7BPfMPiNt2TF4wbskJei+dJoCxHS6aoaZh4MheLQwArGSgonGMAAldInr7Y45stSbp60ORLr/HR7/Su/mJheVnLF4X6pDnFfmrukk2e17QnNYejrFhtmkSMAmYBIaNwGktzoPUq6bdMpfibFMUwJ+tU0JKUhTdqCVp+IUFnka0kZvbmPKmjEhsygjFztXNMB5rmpGG28jkOeC4NpY5G3HfuXxjxk7GtDiCFKIhQAQapSsN93U+iRiNeMB54vH+czHUgcWBfxbe8PDVnuk3rMvEmXl+e2E3C+B5LdvMae1hGyFmwyYBk4BJYBgImOIMACgbddVYzuGZRzt897QGY6Vy1pid5gDLcUCRZUARHaBcUBgGOhxY4oxyNSMBDXUjWQkw8pboQM/Vjc6lMCH5/WiIAEGGLhvyrg/sR/KvQwooxoqu/ImAJ2D/TWzDQ5cWnnXX2u7W5BlVxdURKMXPbdn2uOlzHobBYTZpEjAJmASGi4ApzgPkKyZdNYq2BuakJHQxpmwjGNauqwpBgsBTABv5SVSAc2m/cv5ooOeCsXXA6FpOnI2XjdXPRqB27rexCBpShGi6YSYb65+BbtSWzBW+QsgohoURJFlNIbThgBasbDIT+xWGqdctDPd46GDkvLKS8m6Sjp0X3P2MKc7DNULMdk0CJgGTwDAQMMX5COgVMy4bxVtLCjOqJWhx+lxiAkuIoXUjn7aRNxvQGiQDNaGNw4ys2oQYtnR+M/YbOt1AHu78XvnNOJYxgsQGakvTiEaEQjCRldhsVgMUC8JYV6rkdPrh/p70nCKXI8yjxPktH5niPAxjw2zSJGASMAkMGwFTnD+DvmTaZXUUV0BnZW6mt7Di61lRTasa1gFQc1HXxEi5DXMuZQApw5ecP8FQ0k9sTH0b6blzC7OMH7mk3AOrsYxilcAQZCMTd76alQoMDzeNOIIxJKqWQUomuyDek3CUBrxhIPecH9z2A9NyHrYhYjZsEjAJmAROPAFTnI/BvLThphHI5tYtFt+6SG+sVDXKV+CBMtAQAo1o+fXOkAJGqBgxpNaYrjZoGoUvjACxgec0ZIzYstzzI3/n10ErAOsZ4HE7QawvAwTBCrJSEgBVA3bBATx2Lgn1njPatvxkx4n/aJgtmgRMAiYBk8BwETDF+RjkA+Muroa0k+dZ13iL071UlrWZhgUMaSqXpCSXsMQQYISASmC+BkaueIbhbUZGprH883wysaEWcoUxcrZzPuMYJDJgkApUTQYc4wSiKAKnwwYy6STQZQJ8Tv6QngyetWvTK8Hh+oCY7ZoETAImAZPAiSdgivPfYV4+9eJqjuEdht+YAUcUe2YPP2aZwz7l/033Kcb5jcDt3A8FAMU4rwJoJaXt2vrzPf+bc5vHmgRMAiYBk8CpRcAU51Orv8yrNQmYBEwCJoHTgIApzqdBJ5u3aBIwCZgETAKnFgFTnE+t/jKv1iRgEjAJmAROAwKmOJ8GnWzeoknAJGASMAmcWgRMcT61+su8WpOAScAkYBI4DQiY4nwadLJ5iyYBk4BJwCRwahEwxfnU6i/zak0CJgGTgEngNCBgivNp0MnmLZoETAImAZPAqUXAFOdTq7/MqzUJmARMAiaB04DA/wVX+Tkir4ODPAAAAABJRU5ErkJggg==;" vertex="1" parent="1">
          <mxGeometry x="-790" y="-440" width="427.2" height="100" as="geometry" />
        </mxCell>
        <mxCell id="bT6QLxlO-QxaZoZBgxad-166" value="Alumno:&lt;div&gt;Jennifer Quintero&lt;/div&gt;&lt;div&gt;V-31.515.153&lt;/div&gt;" style="text;html=1;align=right;verticalAlign=middle;whiteSpace=wrap;rounded=0;fontSize=30;fontStyle=0;fontColor=light-dark(#545454, #ededed);" vertex="1" parent="1">
          <mxGeometry x="1170" y="-400" width="280" height="70" as="geometry" />
        </mxCell>
        <mxCell id="bT6QLxlO-QxaZoZBgxad-168" value="Text" style="text;html=1;align=center;verticalAlign=middle;resizable=0;points=[];autosize=1;" vertex="1" parent="1">
          <mxGeometry x="1332" y="-309" width="50" height="30" as="geometry" />
        </mxCell>
        <mxCell id="bT6QLxlO-QxaZoZBgxad-169" value="" style="shape=image;verticalLabelPosition=bottom;labelBackgroundColor=default;verticalAlign=top;aspect=fixed;imageAspect=0;image=https://cdn-icons-png.flaticon.com/512/93/93480.png;" vertex="1" parent="1">
          <mxGeometry x="628.5" y="117" width="43" height="43" as="geometry" />
        </mxCell>
        <mxCell id="bT6QLxlO-QxaZoZBgxad-170" value="" style="shape=image;verticalLabelPosition=bottom;labelBackgroundColor=default;verticalAlign=top;aspect=fixed;imageAspect=0;image=https://cdn-icons-png.flaticon.com/512/876/876784.png;rotation=90;" vertex="1" parent="1">
          <mxGeometry x="240" y="300" width="30" height="30" as="geometry" />
        </mxCell>
      </root>
    </mxGraphModel>
  </diagram>
</mxfile>
